<svg id="Livello_1" data-name="Livello 1" xmlns="http://www.w3.org/2000/svg" viewBox="0 0 64 64"><defs><style>.cls-1,.cls-3{fill:none;}.cls-1,.cls-2,.cls-3{stroke:#000;stroke-miterlimit:10;}.cls-1,.cls-2{stroke-width:2px;}.cls-2{fill:#fff;}</style></defs><title>bath-b</title><path class="cls-1" d="M53,41h7V55.6A5.4,5.4,0,0,1,54.6,61H9.4A5.4,5.4,0,0,1,4,55.6V41H40"/><polyline class="cls-1" points="53 41 63 41 63 38 53 38"/><polyline class="cls-1" points="40 38 1 38 1 41 40 41"/><line class="cls-1" x1="11" y1="61" x2="11" y2="64"/><line class="cls-1" x1="53" y1="61" x2="53" y2="64"/><path class="cls-1" d="M21,13.71V5.2A4.2,4.2,0,0,0,16.8,1H12.2A4.2,4.2,0,0,0,8,5.2V39"/><line class="cls-1" x1="9" y1="47" x2="19" y2="47"/><line class="cls-1" x1="21" y1="47" x2="25" y2="47"/><line class="cls-1" x1="8" y1="32" x2="12" y2="32"/><rect class="cls-2" x="5" y="36" width="7" height="2"/><line class="cls-1" x1="15" y1="14" x2="27" y2="14"/><line class="cls-3" x1="25.87" y1="15.95" x2="25.87" y2="24.48"/><line class="cls-3" x1="16.4" y1="15.95" x2="16.4" y2="24.48"/><line class="cls-3" x1="12.4" y1="33.5" x2="12.4" y2="29.93"/><line class="cls-3" x1="20.19" y1="15.95" x2="20.19" y2="24.48"/><line class="cls-3" x1="18.29" y1="15.95" x2="18.29" y2="23.5"/><line class="cls-3" x1="22.08" y1="15.95" x2="22.08" y2="21.5"/><line class="cls-3" x1="23.98" y1="15.95" x2="23.98" y2="23.5"/><rect class="cls-2" x="40" y="37" width="13" height="17"/></svg>