<svg id="Livello_1" data-name="Livello 1" xmlns="http://www.w3.org/2000/svg" viewBox="0 0 64 64"><defs><style>.cls-1{fill:none;stroke:#3b3b3b;stroke-miterlimit:10;}</style></defs><title>catasto-b</title><g id="Utente_-_arancione-2" data-name="Utente - arancione"><path class="cls-1" d="M63.43,62.2,57.27,46.5h0l-3.38-8.62a1,1,0,0,0-.89-.61H44.76c3.22-6.05,5.82-12.65,5.82-18.19a18.58,18.58,0,0,0-37.16,0c0,5.54,2.6,12.14,5.82,18.19H11a1,1,0,0,0-.89.61L.57,62.2a.92.92,0,0,0,.1.88.94.94,0,0,0,.78.42h61.1a.94.94,0,0,0,.78-.42A.92.92,0,0,0,63.43,62.2Zm-11.08-23L55,45.92H45a1,1,0,0,0-.74.35,1,1,0,0,0-.2.8l1.43,6.81H34a128.25,128.25,0,0,0,9.76-14.7ZM30,53.88H18.55l2.71-13A130.88,130.88,0,0,0,30,53.88Zm15.8,1.91,1.21,5.8H17l1.21-5.8ZM11.65,39.18h8L16.6,53.88H5.88Z"/><path class="cls-1" d="M41,19.24a9,9,0,1,0-9,9A9,9,0,0,0,41,19.24Z"/></g></svg>