<svg id="Livello_1" data-name="Livello 1" xmlns="http://www.w3.org/2000/svg" viewBox="0 0 64 64"><defs><style>.cls-1,.cls-2{fill:none;stroke-linecap:round;stroke-linejoin:round;}.cls-1{stroke:#ee7003;}.cls-2{stroke:#fff;}</style></defs><title>differen-w</title><g id="Utente_-_arancione-2" data-name="Utente - arancione"><g id="_10" data-name="10"><path class="cls-1" d="M32.35,40.39a21.08,21.08,0,0,1,1.95-8.32.66.66,0,0,0-.71-.92,2.5,2.5,0,0,0-.83.4,2.66,2.66,0,0,1-2.94,0,2.5,2.5,0,0,0-.83-.4.66.66,0,0,0-.71.92,20.91,20.91,0,0,1,1.95,8.32"/><path class="cls-2" d="M27.38,40.45V44a.88.88,0,0,0,.88.87h.42l0,.12a2.74,2.74,0,0,0,2.65,2h0a2.75,2.75,0,0,0,2.63-2l.06-.19h.42a.88.88,0,0,0,.88-.87V40.45Z"/><path class="cls-2" d="M39.16,29.41a7.79,7.79,0,0,0-15.58,0,7.66,7.66,0,0,0,1.35,4.4,11.25,11.25,0,0,1,2.44,6.65h8a11.11,11.11,0,0,1,2.43-6.63A7.75,7.75,0,0,0,39.16,29.41Z"/><line class="cls-2" x1="21.82" y1="33.3" x2="20.17" y2="33.94"/><line class="cls-2" x1="21.4" y1="26.58" x2="19.69" y2="26.21"/><line class="cls-2" x1="24.75" y1="21.2" x2="23.55" y2="20.02"/><line class="cls-2" x1="31.49" y1="18.73" x2="31.49" y2="17"/><line class="cls-2" x1="41.1" y1="33.3" x2="42.75" y2="33.94"/><line class="cls-2" x1="41.58" y1="26.58" x2="43.29" y2="26.21"/><line class="cls-2" x1="38.23" y1="21.2" x2="39.43" y2="20.02"/><line class="cls-2" x1="28.68" y1="44.86" x2="34.06" y2="44.86"/><line class="cls-2" x1="27.55" y1="42.66" x2="35.19" y2="42.66"/></g></g></svg>