<svg id="Livello_1" data-name="Livello 1" xmlns="http://www.w3.org/2000/svg" viewBox="0 0 64 64"><defs><style>.cls-1{fill:#fff;fill-rule:evenodd;}</style></defs><title>intermediazione-b copia</title><path class="cls-1" d="M32,47.65a2.27,2.27,0,0,1-1.4-.47L16,35.25a2.21,2.21,0,0,1-.7-1.62,2.18,2.18,0,0,1,.12-.72L20,20.2a2.4,2.4,0,0,1,1.19-1.26,2.36,2.36,0,0,1,1.06-.25H41.77a2.45,2.45,0,0,1,2.29,1.61l4.52,12.59a2.34,2.34,0,0,1,.12.74,2.22,2.22,0,0,1-.77,1.68L33.41,47.17A2.29,2.29,0,0,1,32,47.65Zm-8.95-27a1.66,1.66,0,0,0-1.49,1L17.63,32.61a1.59,1.59,0,0,0-.08.51,1.77,1.77,0,0,0,.59,1.33L31.11,45a1.51,1.51,0,0,0,.89.3,1.42,1.42,0,0,0,.87-.29l.93-.76a.34.34,0,0,0,.13-.27.37.37,0,0,0-.13-.27l-3.27-2.68a.12.12,0,0,1-.05-.11l1.4-1.12a.33.33,0,0,1,.16-.07l3.44,2.79a.37.37,0,0,0,.22.08.35.35,0,0,0,.22-.08l1.75-1.42a.37.37,0,0,0,.13-.28.37.37,0,0,0-.13-.27L34.4,37.92a.12.12,0,0,1,0-.11l1.41-1.12a.24.24,0,0,1,.16-.08l3.43,2.79a.34.34,0,0,0,.44,0L41.55,38a.36.36,0,0,0,.12-.27.33.33,0,0,0-.12-.27l-3.28-2.68a.21.21,0,0,1-.05-.11l1.41-1.12a.33.33,0,0,1,.16-.07l3.43,2.79a.4.4,0,0,0,.23.08.4.4,0,0,0,.22-.08l1-.87a1.22,1.22,0,0,0,.43-.93,1.23,1.23,0,0,0-.41-.92L34.43,25.09a2.86,2.86,0,0,0-4.34.63l-2.9,3.91a.21.21,0,0,1-.16.08l-.11,0-2.7-1.35a.19.19,0,0,1-.06-.21l2.51-7a.37.37,0,0,0-.05-.32.34.34,0,0,0-.28-.14H23.05ZM52.41,33.46a.12.12,0,0,1-.1-.06L47,18.29l.06-.13,5.13-1.8h0a.11.11,0,0,1,.1.06l5.33,15.12-.06.12-5.13,1.81Zm-40.85,0L6.43,31.65l-.06-.12L11.7,16.41a.1.1,0,0,1,.09-.06L17,18.16a.1.1,0,0,1,.06.13L11.68,33.4a.1.1,0,0,1-.09.06Z"/></svg>