<svg id="Livello_1" data-name="Livello 1" xmlns="http://www.w3.org/2000/svg" viewBox="0 0 64 64"><defs><style>.cls-1{fill:#3b3b3b;fill-rule:evenodd;}</style></defs><title>intermediazione-b</title><path class="cls-1" d="M32,44.21a1.81,1.81,0,0,1-1.1-.36L19.51,34.54A1.75,1.75,0,0,1,19,33.27a1.77,1.77,0,0,1,.09-.56l3.57-9.92a1.87,1.87,0,0,1,.93-1,2,2,0,0,1,.82-.19H39.62a1.91,1.91,0,0,1,1.79,1.26l3.53,9.82a1.9,1.9,0,0,1,.09.58,1.73,1.73,0,0,1-.6,1.32L33.1,43.84A1.8,1.8,0,0,1,32,44.21Zm-7-21a1.31,1.31,0,0,0-1.16.78l-3.07,8.53a1.56,1.56,0,0,0-.06.41,1.39,1.39,0,0,0,.46,1l10.13,8.27a1.19,1.19,0,0,0,.69.23,1.17,1.17,0,0,0,.68-.22l.73-.6a.27.27,0,0,0,0-.42l-2.56-2.09a.12.12,0,0,1,0-.08l1.1-.88a.26.26,0,0,1,.12-.06l2.69,2.18a.27.27,0,0,0,.34,0l1.37-1.11a.27.27,0,0,0,0-.42l-2.56-2.09a.12.12,0,0,1,0-.09l1.1-.87a.18.18,0,0,1,.13-.06l2.68,2.18a.27.27,0,0,0,.34,0l1.37-1.12a.27.27,0,0,0,0-.42L36.9,34.15a.09.09,0,0,1,0-.09l1.1-.87a.18.18,0,0,1,.12-.06l2.68,2.18a.27.27,0,0,0,.17.06.3.3,0,0,0,.18-.06l.82-.68a1,1,0,0,0,.33-.73,1,1,0,0,0-.32-.72l-8-6.57A2.18,2.18,0,0,0,32.41,26a2.21,2.21,0,0,0-1.9,1.06l-2.26,3a.17.17,0,0,1-.13.07l-.08,0-2.11-1.05a.16.16,0,0,1-.05-.17l2-5.44a.28.28,0,0,0,0-.25.25.25,0,0,0-.22-.12H25Zm22.92,10a.08.08,0,0,1-.08,0L43.7,21.3l0-.1,4-1.41h0c.05,0,.07,0,.08.05L52,31.63l0,.1-4,1.41Zm-31.88,0-4-1.41-.05-.1,4.16-11.79a.06.06,0,0,1,.07-.05l4,1.41a.08.08,0,0,1,.05.1L16.14,33.09a.06.06,0,0,1-.07,0Z"/></svg>