<svg id="Livello_1" data-name="Livello 1" xmlns="http://www.w3.org/2000/svg" viewBox="0 0 64 64"><defs><style>.cls-1{fill:none;stroke:#3b3b3b;stroke-miterlimit:10;}</style></defs><title>perizie-b</title><g id="Utente_-_arancione-2" data-name="Utente - arancione"><path class="cls-1" d="M43.34,4.36H54a1.3,1.3,0,0,1,1.3,1.29V62.2A1.3,1.3,0,0,1,54,63.5H10a1.3,1.3,0,0,1-1.3-1.3V5.65A1.3,1.3,0,0,1,10,4.36h10.7"/><rect class="cls-1" x="13.61" y="10.77" width="36.77" height="46.77" rx="1.3"/><line class="cls-1" x1="18.31" y1="19.74" x2="45.69" y2="19.74"/><line class="cls-1" x1="18.31" y1="25.49" x2="45.69" y2="25.49"/><line class="cls-1" x1="18.31" y1="31.24" x2="45.69" y2="31.24"/><line class="cls-1" x1="18.31" y1="36.99" x2="45.69" y2="36.99"/><line class="cls-1" x1="18.31" y1="42.75" x2="45.69" y2="42.75"/><line class="cls-1" x1="18.31" y1="48.5" x2="45.69" y2="48.5"/><rect class="cls-1" x="20.66" y="0.5" width="22.67" height="7" rx="1.3"/></g></svg>