<svg id="Livello_1" data-name="Livello 1" xmlns="http://www.w3.org/2000/svg" viewBox="0 0 64 64"><defs><style>.cls-1,.cls-2{fill:none;stroke-linecap:round;stroke-linejoin:round;}.cls-1{stroke:#3b3b3b;}.cls-2{stroke:#ee7003;}</style></defs><title>professional-b</title><g id="Utente_-_arancione-2" data-name="Utente - arancione"><g id="_12" data-name="12"><polyline class="cls-1" points="37.87 36.29 39.66 46.97 32 44.97 24.34 47 26.12 36.34"/><path class="cls-1" d="M32,38c-1.08,0-2-1.1-2.95-1.42s-2.37,0-3.21-.58-.93-2-1.55-2.88S22.35,31.74,22,30.73s.45-2.16.45-3.24-.76-2.27-.45-3.24,1.66-1.53,2.27-2.37S25,19.62,25.84,19s2.2-.25,3.21-.58S30.92,17,32,17s2,1.1,3,1.42,2.37,0,3.21.58.93,2,1.55,2.88,1.94,1.36,2.27,2.37-.45,2.16-.45,3.24.76,2.26.45,3.24-1.66,1.52-2.27,2.36S39,35.35,38.16,36s-2.2.26-3.21.58S33.08,38,32,38Z"/><circle class="cls-1" cx="32" cy="27.49" r="7.35"/><polygon class="cls-2" points="32 23.25 33.19 26.13 36.32 26.4 33.93 28.4 34.67 31.48 32 29.8 29.33 31.48 30.07 28.4 27.68 26.4 30.81 26.13 32 23.25"/><line class="cls-1" x1="28.86" y1="36.68" x2="27.3" y2="46.05"/><line class="cls-1" x1="35.19" y1="36.81" x2="36.66" y2="46.05"/></g></g></svg>