<svg id="Livello_1" data-name="Livello 1" xmlns="http://www.w3.org/2000/svg" viewBox="0 0 64 64"><defs><style>.cls-1{fill:#fff;}.cls-2,.cls-3{fill:none;stroke:#fff;stroke-miterlimit:10;}.cls-2{stroke-width:2px;}</style></defs><title>sell-home-w</title><polygon class="cls-1" points="32 35.6 32 35.6 32 35.6 32 35.6"/><path class="cls-1" d="M41.41,30.49c-.88-1.95-3.52-2.18-5.28-2.93a44.8,44.8,0,0,1-2.79,8.1l-.71-4.91.24-1.06L32,29.06l-.87.63.24,1.06L31.66,33l-1-.54a4.43,4.43,0,0,0-1-1l-1.74-3.92a6.39,6.39,0,0,0-.82.75,5,5,0,0,1-.84.75l.25.53c-.59.49-1,.84-.25.88a7.4,7.4,0,0,1,.86.08l2,1.06c.29.23.6.45.9.67l2.38,3.95L32,41.5H42a.81.81,0,0,0,.64-.3,1,1,0,0,0,.25-.72C42.73,36.93,42.31,32.49,41.41,30.49Zm-2.74,7.39h-3v-1h3Z"/><path class="cls-1" d="M27.61,23.28C28.5,25.54,30,27.56,32,27.56s3.5-2,4.39-4.28c.78.08,1.61-1.24,1.35-2.18-.08-.28-.31-.32-.56-.27.59-2.58.49-4.8-1.56-5.49-.43-2.72-8-2-8.93,2.27a8.13,8.13,0,0,0,.13,3.22c-.25,0-.48,0-.56.27C26,22,26.84,23.36,27.61,23.28Zm.29-4.93c3.52,1.19,5-.23,6.51-1.25a16.3,16.3,0,0,1-1.12,1.57,5.45,5.45,0,0,0,1.94-1.58c.34,1.6,1.28,2.78,1.15,3.59-.46,2.56-2,6.24-4.38,6.24-1.81,0-3.12-2.37-3.7-3.81a12.42,12.42,0,0,1-.68-2.36h0A16.74,16.74,0,0,1,27.9,18.35Z"/><circle class="cls-2" cx="25" cy="38" r="8"/><line class="cls-2" x1="19" y1="44" x2="14" y2="49"/><path class="cls-3" d="M25,43a5,5,0,0,1-5-5"/></svg>