<svg id="Livello_1" data-name="Livello 1" xmlns="http://www.w3.org/2000/svg" viewBox="0 0 64 64"><defs><style>.cls-1{fill:none;stroke:#fff;stroke-miterlimit:10;stroke-width:2px;}.cls-2{fill:#fff;}</style></defs><title>size-w</title><line class="cls-1" x1="17.07" y1="58.73" x2="8.53" y2="58.73"/><line class="cls-1" x1="17.07" y1="49.63" x2="8.53" y2="49.63"/><line class="cls-1" x1="17.07" y1="40.53" x2="8.53" y2="40.53"/><line class="cls-1" x1="17.07" y1="31.43" x2="8.53" y2="31.43"/><line class="cls-1" x1="17.07" y1="22.33" x2="8.53" y2="22.33"/><line class="cls-1" x1="17.07" y1="27.03" x2="12.58" y2="27.03"/><line class="cls-1" x1="17.07" y1="36.03" x2="12.58" y2="36.03"/><line class="cls-1" x1="17.07" y1="45.04" x2="12.58" y2="45.04"/><line class="cls-1" x1="17.07" y1="54.04" x2="12.58" y2="54.04"/><line class="cls-1" x1="21.91" y1="17.07" x2="21.91" y2="8.53"/><line class="cls-1" x1="31.01" y1="17.07" x2="31.01" y2="8.53"/><line class="cls-1" x1="40.11" y1="17.07" x2="40.11" y2="8.53"/><line class="cls-1" x1="49.21" y1="17.07" x2="49.21" y2="8.53"/><line class="cls-1" x1="58.31" y1="17.07" x2="58.31" y2="8.53"/><line class="cls-1" x1="53.61" y1="17.07" x2="53.61" y2="12.58"/><line class="cls-1" x1="44.61" y1="17.07" x2="44.61" y2="12.58"/><line class="cls-1" x1="35.6" y1="17.07" x2="35.6" y2="12.58"/><line class="cls-1" x1="26.6" y1="17.07" x2="26.6" y2="12.58"/><path class="cls-2" d="M62,2V15.07H19.52a3.28,3.28,0,1,0-4.45,4.45V62H2V2H62m2-2H0V64H17.07V17.84a1.26,1.26,0,0,1-.43.08,1.28,1.28,0,1,1,1.28-1.28,1.26,1.26,0,0,1-.08.43H64V0Z"/></svg>