<svg id="Livello_1" data-name="Livello 1" xmlns="http://www.w3.org/2000/svg" viewBox="0 0 376.95 46.07"><defs><style>.cls-1{fill:#fff;fill-rule:evenodd;}</style></defs><title>Tavola disegno 4</title><path class="cls-1" d="M5.79,25l.49-.16,1,.64v.67l-.35.5-.83-.16-.64-1,.16-.32L5.79,25Zm11.41-.16L15.54,25l-1,.32-.32-.16h-.17l-.82.51-.5-.19-1.16.19L9.93,26,7.44,27.13l-.66.35-.67-.17L5,28.62l-.51.32-2.3,1.17-.83,1v1l-.16.16H.83l-.83.5v.49l.34.18.83-.18H2l.81-.65L4,32.24h.16V31.6l.32-.18.18-.32.49-.33h.16l.67-.5v-.16l3-1.49,1.32-.48,3.47-.66.5-.35.48.18,1.34-.5,1.31-.16,3.65-.5,2-.48.17-.83-.83-.18H21.17l-1.33.18-1.66-.18-1,.18ZM8.76.6l-1,.5-.48.51.32.82-.17.16-.82-.34-1.33,2,.18.82L6,4.89v.17l-.17.17v.66L5.63,7.2V10l-.34,1,.18.81-.5.66v.16l-.33,1.48.65,1,.5-.82h.32l-.15,1-.33.49-.16-.32H5.13v.15L5,15.77v-.32l-.16-.17H4.46v.49l.18.16-.18.34L4.3,17.58l.16.16.67-.16.5-1v2.31H5.47l-.34-.83H4.64l-.18.83.51,1,.32.17h.34l.33.32-.49,1.16.32.32L5.47,23v.48l-.18.16H5.13L5,23.35l-.33-.16-.18.32.18.51.83.82L6.94,24l-.16-1.49L6.46,22l.32-.65-.16-.5.32-.17V17.58l.17-2.3.18-.18h.15v.18l.17.32h.32L8.11,15l.17-3-.17-.18.49-.49h.16l-.16.49.5.66V13l-.16.16-.34.67-.16.48.66.34.67-.16h.16l.16-.5.49.15.18-.48-.35-.17-.15.17h-.17V12l-.32-.35L9.59,11l.5-.66v-1L9.93,7.2l-.16-.67.32-1.64-.16-.33L9.77,3.42l.49-.67L10.09,1,9.43.78,9.26.6V.44h-.5V.6ZM30.87,14.32l1.5-1.14.71-.13.78.13.48,1.14v1L34,16.47,33,17l-.82-.32-.17.15.49.5-.16.33h-.51l-.16-.48.16-.35-.16-.48h-.48L30,17.46h-.15l-.16.16-.35.82-1,.82-.32.83v.34l-.83.81-.32,1.49-.66,1.49V25l-.56.58-.11.73-.33.82-.3.91.3.42.49-.32,1.49-1.49L28.74,25l1.1-1.15L31,22.49l1.12-1.15,1.56-1.95,1.84-1.93H36l.66.66-.07.9.07,1.07-.32,1.81v1.17l-.34.65L37.15,26l-.16.66,1,.66,1.13.08,1.47-1,1.57-.92,1.13-1.15,2-1.77,2-1.86.75-.41-.5,1.32-1.4,1.89-.51.17L44.6,25l-.67.58-1,.73-.44.42-.59.4L40.5,28.34l-1.23.94-1.57.63-1.86.24-1-.34-.51-1L33.52,28l.66-.48v-.17l-.82-.7V25.53l.16-.49-.33-.66.17-.32-.51-.51-.32-.48h-.16L29.89,25.2l-1.15,1.65-1,1V28l-.67.5-.51.82-1.15.49-1,1-.83.49-.16.34-1,.16-.32-.5,1.15-3.47.5-1.3.28-1.05.35-.86.69-1.07.17-.16.16-1.14,1.15-2.32.67-.67V19l.17-.34.74-1.23.91-1.07.16-.34.67-.61,1-1Zm33.91,2.93,1.15-.54.83,0,.66.2.17.82-.33,1L66.92,20l-.65.33.49.34v.82l-.49.49v1.32h.17l1-.5,1-1.31,1.7-1h.5l.83-.82.32-.18.67-.16,1,.5.16,1,.24,1.27.16,1-.12,1.19-.48,1.49-.67.64-.59,1.37-.36.66L73,27.76l.83-.36.75-.63,1-.38.71-.44.74-.37.63.13.35.44-.78.94-1.31.59-.83.5-.75.9-1,.48-.83.17-.51.34-.16.66-.32.16v.29l-.18.16-.52.2-.63.46h-.17l-.5.32-.32,1.33h-.32l-.87-.95-.79-1,.87-.79.74-1,.87-1.17.69-1.61.3-1.18.49-1,0-1.69L70,22.61l-.83.16L66.76,25l-.32,1.31-1.33,1.32V28.9l-.33.83-.16,1.81-.35.82-.16,1.17.16.32-1.06,2.86V38l-.5.82-.33.83.16.5-.34.32.51.35v.32h-.17L62,42l.34,1.65-.18.16H62V44l.16.5-.65.33v1.16l-.19.13h-1L60.56,45l.33-1.65-.16-.5.48-.83-.48-.82V40.05l.66-.7L62.12,37l.42-3.18.34-1-.18-.51L62.18,32l.44-.7.47-.79v-1l.31-.66-.31-.82.16-.82v-.33l.7-.16-.16-1,.32-.35L64,25.12l-.66-.32L63.12,24l.33-.35V23l.34-.5L63.61,21l.34-.82-.5-.66-1.23.55-.43.5L61,20.43h-.16l-.33.45-.51.2-.62.26-.73,0L58.44,21l.63-.36,1-.51.62-.66,1.37-.36,1-.79,1.69-1Zm21.57-2.93-1,1L84.7,16l-.16.34-.91,1.07-.75,1.23-.16.34v.31l-.67.67L80.9,22.25l-.16,1.14-.18.16-.69,1.07-.34.86-.28,1.05-.5,1.3L77.59,31.3l.33.5,1-.16.17-.34.83-.49,1-1,1.15-.49.51-.82.66-.5v-.17l1-1,1.15-1.65,2.48-2.13H88l.32.48.51.51-.17.32L89,25l-.15.49v1.12l.82.7v.17L89,28l.83.82.51,1,1,.34,1.86-.24,1.57-.63L96,28.34l1.41-1.17.59-.4.44-.42,1-.73.67-.58,1-1.32.5-.17,1.4-1.89.51-1.32-.75.41-2,1.86-2,1.77-1.13,1.15-1.57.92-1.47,1-1.13-.08-1-.66.16-.66-1.15-2.31.34-.65V21.9l.32-1.81L92.07,19l.07-.9-.66-.66H91l-1.83,1.93L87.6,21.34l-1.13,1.15-1.15,1.4L84.21,25l-1.49,1.65-1.5,1.49-.48.32-.3-.42.3-.91.33-.82.11-.73.55-.58v-.82l.67-1.49.32-1.49.83-.81v-.34l.32-.83,1-.82.35-.82.15-.16h.16l1.17-1.15h.49l.16.48-.16.35.16.48h.5l.17-.33-.49-.5.17-.15.82.32,1-.49.32-1.15v-1l-.48-1.14-.79-.13-.71.13-1.49,1.14ZM110,11.49l.61-.21,1,.16.62.37.54.46.33.78.16,1-.28.38-.21.45v.82l-.9.91-.79.5-.59-.13-.15-.41.46-.45v-.59l-.38-.41-.67.08-.61.5-.34,1.15-.24.58-.08.66,0,.66-.16,1,0,1.89-.5.83.32.82.1.67-.1.82.18,1.15v1.14l-.18.34.34,2.48-.34.32v.16l.5.5-.32.65-.18.18h-.32l-.67.82-.65-.34-.18.16.18.67-.18.16-.83-.16V32.2l-.16-.16H105l-.34.5-.49-.18-.83-.16-.83-.82.33-.32-.16-1-.49-.16-1,.16.17.32-.17.16H101l-.16-.48-.83-.51h-.5v-.48L98,28.9l-.17-.16,1.48-1.65.82-.64,1.17.32.73.66.93.65h.32l.67,1,1.47.33.35-.33-.21-.86.37-1.29v-.82l.16-.67-.16-.32-.16-1.33.32-.32V23l.5-1.49-.47-.86-.07-.63.38-.66.16-.65-.34-.33.3-.91.24-.91.09-.74V14.74l.24-.7.63-.45,0-.5.12-.32.35-.18.24-.52.95-.54.5,0Zm13.77,0-.51,0-1,.54-.24.52-.34.18-.12.32,0,.5-.63.45-.24.7v1.07l-.08.74-.24.91-.31.91.35.33-.17.65-.38.66.08.63.47.86L119.87,23v.48l-.32.32.16,1.33.16.32-.16.67v.82l-.37,1.29.21.86-.34.33-1.48-.33-.67-1h-.32l-.92-.65-.73-.66-1.18-.32-.82.64-1.47,1.65.16.16,1.47.18v.48h.51l.82.51.16.48h.17l.18-.16-.18-.32,1-.16.49.16.16,1-.32.32.82.82.83.16.49.18.34-.5H119l.17.16V33l.82.16.18-.16-.18-.67.18-.16.65.34.67-.82h.32l.18-.18.32-.65-.5-.5v-.16l.34-.32-.34-2.48.18-.34V26l-.18-1.15L122,24l-.1-.67-.32-.82.5-.83,0-1.89.16-1,0-.66.08-.66.24-.58.35-1.15.6-.5.67-.08.38.41v.59l-.46.45.16.41.58.13.8-.5.9-.91v-.82l.2-.45.29-.38-.17-1-.32-.78-.55-.46-.62-.37-1-.16-.6.21Zm7.89,19.28.32-.34.83.16.34.83-.51.66v.16l-1,.17-.17-.17.17-1.47Zm1.65-15,.33-.32,1,.15.34.33-.17,2-.17.32.17.67-.49.82.49.65-.33,2V24l-.32.15v.49l.48.66-1.15,1,.32.5L133.43,28l-.83,2.31h-.15l-.67-.36-.33-1.13.65-.82v-.48l.35-1.95V24l.66-1.65-.51-.83.33-.83-.33-.5.33-1.14,0-.5-.49-.29-.78-1L131,17.1l-1.31.32L128,18.78l-1.17.17-.12-.38.47-.79,1.47-.82,1-.36,1-.33,1.47-.67,1.17.17Zm-1-9.39.49-.49h.34l1.31.64.33,1.65,1.33.67.82.67v.31l-.82.17-1.5,1.16h-2l-1-.16-1.5-1.17.33-.66.18-.16.65-1.31.34-.16.66-1.16Zm18.05,11.74.58.32,1,.67.78-.37.87,0,1.66.21h1.37l.7-.08.37.52-.28.34-.87.44-1,.25H155l-.7.18-.36.12-.31.62-.44.24-.71,0-.2,1.77-.54.16v.62l-.2.41-1,1.29-.63.52-.67.7-.94.83-.75.82-.75.2-.15.42-.59.17-.57.42-.66.6-.55.26-.95.17-.69-.71-.66-.82.08-.63,0-.7-.74-1-.16-1.34V24.58l.31-1.65-.82.18-.71.44-.52.24-1.12.62-.17-.86.74-1.06,1-.55.83-.48.71-.75,1.15-.86.87-.5.86-.48.87-.22,0,.7-.91.95-.24,1,.2.9,0,.95,0,1,.26,1.07.37.79.62.36.16.7.83-.12.71-.24.74-.58.65-.32.46-.47.45-.78.63-.69-.05-.66.16-.46-.2-.79-.12-1-.59-1.22-.94-.42-.67-.12L147,19l-.78-.46.68-.44.71-.24.75-.18.78,0,.63-.08.61.5Zm12.07-.42v-.17h.5l.32,1.34V20l-.67.51V21l.51,1v.5l-.34,1,.34.51-.16,1.81.48,1,3.31-2.47L169.17,23h.51l1.47-1.33,1.34-1.14.66.16v.16l.16.82.83,1.33.16,1,.32.82.67,1.15h.32l.51-.51,1.23-.36.91-.62,1.49-.61,1-.66.67.48-1.15,1.61-1.17.51-3.64,2.47H174.3l-.16.16-.35.48-1.47.66H172l-.66-.82v-.66h-.17l-.16-.16-.16-2-1.15-1-1.66.83h-.34l-1,.66-1.15,1-1.33.83-.66.64-.49.18-1.66,1.15-1.65,1-.32-.16V28.74l.16-1,.32-.33v-.5l.51-.48-.35-1.17.18-.66-.18-1.15.35-1-.35-.33,1-2.47,1.32-2Zm26.27-2.79L190,13.59l.51.17h.16v.66l-.34,1.14-.33.49-.16.35-.51.65v.33l-.48.66-.3.79-.52.52V21l-.18.83-.49.34v.49l.62.12,1.28-1.31,1-1.29L190.16,19l.55-.33.16-2.1-.08-.71.67-1,1-1.27.91.28.59.37v1.17l-.5.32v.16l.15.66-.31.33L193,18.37l-.83.65-.48,1-.33.33-.38.82.66-.24.53-.4.47-.35.71-.16,1.1-.75.87-.39.46-.43,1-.56.74-.46,1.15-.2-.5.94-.53.54-.7.37-.79.62-.32.48-1.5.67-.16.32-1.37.18-.44.65-.67.5-.79.36L189.33,24l-1,.32-.83.82V26l-.16.16h-.16v.16l.32,1.13.29.74.37.44,1,.16.82-.24.29-.46.58-.16.33-.24.82-.12.95-.59,1-1,.32-.12,1.54-1,1-1.12,1-.91.63-.16.2.86-1.19,1.25-1.61,1.35-1.17.62-.16.53-1.15,1-.84.48-1.33.16-.16.51v.5l-1,.16-.67.48h-.48l-2.4.34-1.33-.9-.24-1.25-.33-.48V27.09l-.17-.48.17-.34v-.16l-.34-.83.34-1.49v-1l.49-1,.16-1.14.18-.16.65-1.33.5-1.66,1.32-1.8.5-.32v-.35l.32-.15Zm30.26,0,1.33-1.32.51.17h.15v.66l-.34,1.14-.32.49-.16.35-.51.65v.33l-.48.66-.31.79-.52.52V21l-.18.83-.48.34v.49l.62.12,1.27-1.31,1-1.29L220.42,19l.55-.33.15-2.1-.07-.71.66-1,1-1.27.91.28.58.37v1.17l-.5.32v.16l.16.66-.32.33-.35,1.49-.82.65-.48,1-.33.33-.38.82.67-.24.52-.4.46-.35.71-.16,1.11-.75.87-.39.46-.43,1-.56.74-.46,1.15-.2-.5.94-.52.54-.71.37-.79.62-.32.48-1.5.67-.15.32-1.37.18-.45.65-.66.5-.8.36L219.59,24l-1,.32-.82.82V26l-.16.16h-.17v.16l.33,1.13.28.74.39.44,1,.16.83-.24.28-.46.58-.16.33-.24.82-.12.95-.59,1-1,.32-.12,1.54-1,1-1.12.95-.91.62-.16.2.86-1.18,1.25-1.62,1.35-1.17.62-.16.53-1.15,1-.83.48-1.33.16-.16.51v.5l-1,.16-.67.48h-.48l-2.4.34-1.34-.9-.24-1.25-.32-.48V27.09l-.18-.48.18-.34v-.16l-.34-.83.34-1.49v-1l.49-1,.16-1.14.17-.16.65-1.33.5-1.66,1.32-1.8.5-.32v-.35l.33-.15Zm-2.3-9.52.86-.78.87-.17.87.08.12.71.44.44.43.58.57.42.82.65.75.47.78.15.63.37.83,0,.78.3.87.28.95.28.71-.08.68.14,1.17.08.08.17,0,.35-.38.58-.68.21h-.91l-.31.16-.67.22h-1l-.75-.42-1.27-.12-.2-.24-1-.22-.59,0-.46-.33-.08-.28-.45.2-.58-.28-.16-.26-1.25-.33-.49-.45-.38-.45-.08-.46-.52-.24-.47-.28-.48-.67,0-.78Zm36.14,13-1.63-.32-.51.32.09.55L249,20.84l-.5.9v.16l-.33.35v.32l-1,.82L246.88,25l-.5.67v1h.32l1.17-1.16v-.17l.32-.32h.51l1.31-2,.5-1.17,1-1.3,1.11-1.21v-.32l.16-.67Zm6-17.92.67-.48h.33l1.15,1.64-.5,2.14-.48.16.48.82-.48.5V6.58l-.67,1,.32,1.31-.32.16h-.16l-.16.16.16.66L258.44,11v.82l-.15.83-.35.32h-.17v.32l.67.35v.64l-.32.18L257.77,16l-.15,1,.15.18-.32,1.14v.83l.49,1-.17.16-.32.18-.34.81.34.66v1h-.16l-.67.34v.16l.17.16h.32l.18.67.16,2.13-.34,2.15-.49.32.49.5v.49l-.32.34L257,31.3,256.62,33l-.15.5.15.64-.58,1-.57-.22v-.49l.33-.5-.33-1,.33-.67-.16-.82L256,28l.34-.17v-.15l-.34-.51V26h-.16l-.33.16-.18-.33v-.33h.51l.32-1.64.18-.34-.34-.32v-.16l-.16-.18-.51-.82-.15-.65v-.34h.33l.33.34-.16.48.16.17.32-.33-.16-2-.32-1-.17.17-.82.16v.15l-.35.35-.66.82-.49.32v.33h.33l-.16.5-.67.67-.48.82-.83.65-1.17,1.64-.65.67-.67.82-1,.67-.83.31h-.51v.67l-1.3,1.15-.83.5-1.78.36-.54-1.19,2.48-4.78.82-2,.33-.32.16-.83,2.83-4,1.65-1.65,1.47-1.14.51-.17.49-.67.66-.33,1.17.18,1-1.49.16-1-.16-.52.16-.65.67-.17V9.55l-.17-.16V9.21l.17-.64-.35-.83-.32-.34.5-1.3.17-.84.32-.5L257,3.62l-.16-1,1.15-1.34h.35l.15-.16.33-.66Zm7.16,30.29.32-.34.83.16.34.83-.5.66v.16l-1,.17-.16-.17.16-1.47Zm1.65-15,.33-.32,1,.15.35.33-.18,2-.17.32.17.67-.49.82.49.65-.33,2V24l-.32.15v.49l.48.66-1.15,1,.33.5L267.74,28l-.82,2.31h-.16l-.67-.36-.32-1.13.64-.82v-.48l.35-1.95V24l.66-1.65-.5-.83.32-.83-.32-.5.32-1.14,0-.5-.48-.29-.79-1-.67-.15-1.31.32-1.66,1.36-1.17.17-.11-.38.46-.79,1.47-.82,1-.36,1-.33,1.47-.67,1.17.17Zm-1-9.39.49-.49h.34l1.31.64.33,1.65,1.33.67.83.67v.31l-.83.17-1.5,1.16h-2l-1-.16-1.49-1.17.32-.66.18-.16.65-1.31.34-.16.66-1.16ZM308.37,1.1l.51-.32h1.47V1l.51.66,1.15,1,.34,1.15-.16,1.32-.67.17-.16.16V6.71l-1,1.15H310l-.17-1.15-.15-.5.48-.5V5.54l-.48-.65L309,4.72l-.33-.16-.18-.78-1-.53-1.15.33-1.49.82-1.81,1.81-.51.82h-.32l-.17-.32h-.82l-.51,1-.82.83-.17.32V9l-.66.51v.31L298.46,11l-.66.16v1l-.51,1v.16h.18l.33.17L297,14.78l-1.15,2.64-.5.32v.34l-.16.16h-.35l-.16.16v1.66l-.48,1.14-.35.18v3.78l.35,1,.82,1.16.65.49,1.49.66H298l.66-.66h2l.5.34.16-.18v-.48l3.63-1,2.16-1,2.8-1.63.83-.18L313,22h.83l.81-1h1l.16.5-.51.49-.48.17-1.17,1-2.48,1.47-.32.34-1.66.67-1,.82-2.32,1h-.16l-3.15,1.65v.15l-2.14.83-.67.32-1.48.16-.65.18h-.51l-.32.49-4.46-.32-.35-.51v-.16l-.66-.32h-.16L291,28.3l-.17-.16h-.66L289.87,27l-.35-.32v-.16l.17-.18.18.18.16-.18-.16-.83-.18-.16h-.49v-.48h.32l.17.16h.18v-.16l.16-.18.66.18.16-.18-.16-.49h-.5l.5-2.31-.17-.16.17-.32h.16l.49-1.17.5-.15.16-.17V18.74l.84-1.16.5-.33V16.6l.16-.67V15.6l1.15-1.49V14l.16-.16H295l.17-.83,1.31-2.15.66-.65V9.83l2.16-2.13.33-1,1.65-1.48.5-.34.17-.33.48-.5,1.49-1,1.33-1.14,1.32-.5,1.15-.33Zm16.21,13.22-1,1-.67.61-.15.34-.91,1.07-.75,1.23L321,19v.31l-.67.67-1.15,2.32L319,23.39l-.18.16-.69,1.07-.34.86-.28,1.05-.51,1.3-1.15,3.47.33.5,1-.16.17-.34.82-.49,1-1,1.15-.49.51-.82.66-.5v-.17l1-1,1.15-1.65,2.48-2.13h.17l.32.48.5.51-.16.32.32.66-.16.49v1.12l.83.7v.17l-.67.48.83.82.51,1,1,.34,1.86-.24,1.57-.63,1.24-.94,1.41-1.17.58-.4.44-.42,1-.73.67-.58,1-1.32.5-.17,1.4-1.89.5-1.32-.75.41-2,1.86-2,1.77-1.13,1.15-1.57.92-1.47,1-1.13-.08-1-.66.17-.66-1.15-2.31.34-.65V21.9l.32-1.81L330.3,19l.07-.9-.66-.66h-.49l-1.83,1.93-1.56,1.95-1.13,1.15-1.15,1.4L322.44,25,321,26.69l-1.5,1.49-.48.32-.3-.42.3-.91.32-.82.12-.73L320,25v-.82l.66-1.49.33-1.49.82-.81v-.34l.33-.83,1-.82.35-.82.15-.16h.16l1.17-1.15h.49l.16.48-.16.35.16.48h.5l.17-.33-.49-.5.16-.15.83.32,1-.49.32-1.15v-1l-.48-1.14-.79-.13-.71.13-1.49,1.14Zm23.61-2.83.61-.21,1,.16.62.37.54.46.33.78.16,1-.28.38-.21.45v.82l-.9.91-.79.5-.59-.13-.16-.41.47-.45v-.59l-.38-.41-.67.08-.61.5L347,16.88l-.24.58-.09.66.05.66-.16,1,0,1.89-.51.83.33.82.09.67-.09.82L346.5,26v1.14l-.18.34.33,2.48-.33.32v.16l.5.5-.32.65-.18.18H346l-.67.82-.64-.34-.18.16.18.67-.18.16-.83-.16V32.2l-.16-.16h-.32l-.34.5-.49-.18-.83-.16-.83-.82.33-.32-.16-1-.49-.16-1,.16.18.32-.18.16h-.16l-.16-.48-.83-.51h-.5v-.48l-1.47-.18-.17-.16,1.47-1.65.83-.64,1.17.32.73.66.93.65h.32l.67,1,1.47.33.35-.33-.21-.86.36-1.29v-.82l.17-.67-.17-.32L344,23.79l.32-.32V23l.5-1.49-.47-.86L344.3,20l.38-.66.16-.65-.34-.33.3-.91.24-.91.09-.74V14.74l.24-.7.62-.45,0-.5.12-.32.35-.18.24-.52.95-.54.5,0Zm11.64,2.83-1,1-.67.61-.16.34-.91,1.07-.74,1.23-.17.34v.31l-.67.67-1.15,2.32-.15,1.14-.18.16-.69,1.07-.35.86-.28,1.05-.5,1.3-1.15,3.47.32.5,1-.16.16-.34.83-.49,1-1,1.15-.49.51-.82.66-.5v-.17l1-1,1.15-1.65,2.47-2.13h.17l.33.48.5.51-.17.32.33.66-.16.49v1.12l.82.7v.17l-.66.48.82.82.51,1,1,.34,1.86-.24,1.57-.63,1.23-.94,1.41-1.17.59-.4.44-.42,1-.73.67-.58,1-1.32.51-.17,1.39-1.89.51-1.32-.75.41-2,1.86-2,1.77-1.13,1.15-1.57.92-1.47,1-1.13-.08-1-.66.16-.66L365,23.72l.34-.65V21.9l.32-1.81L365.55,19l.07-.9-.66-.66h-.49l-1.83,1.93-1.55,1.95L360,22.49l-1.16,1.4L357.7,25l-1.5,1.65-1.49,1.49-.48.32-.31-.42.31-.91.32-.82.12-.73.55-.58v-.82l.66-1.49.32-1.49.83-.81v-.34l.32-.83,1-.82.35-.82.16-.16H359l1.17-1.15h.49l.15.48-.15.35.15.48h.5l.17-.33-.49-.5.17-.15L362,17l1-.49.31-1.15v-1l-.48-1.14-.78-.13-.72.13-1.49,1.14Z"/></svg>