<svg id="Livello_1" data-name="Livello 1" xmlns="http://www.w3.org/2000/svg" viewBox="0 0 230 200"><defs><style>.cls-1{font-size:8.7px;font-family:ChalkboardSE-Regular, Chalkboard SE;}.cls-1,.cls-25{fill:#fff;}.cls-2{letter-spacing:0em;}.cls-3{fill:#dedede;}.cls-4{fill:#dfdfdf;}.cls-5{fill:#414242;}.cls-6{fill:#239bc6;}.cls-7{fill:#82cef0;}.cls-8{fill:#f1f1f1;}.cls-9{fill:#a3a3a3;}.cls-10{fill:#82cff1;}.cls-11{fill:#229cc7;}.cls-12{fill:#3f4040;}.cls-13{fill:#eee;}.cls-14{fill:#f0f0f0;}.cls-15{fill:#a2a2a2;}.cls-16{fill:#249ac5;}.cls-17{fill:#f5e4cc;}.cls-18{fill:#f0b735;}.cls-19{fill:#db9c17;}.cls-20{fill:#f4e3cc;}.cls-21{fill:#efb639;}.cls-22{fill:#f6e5cc;}.cls-23{fill:#f1b831;}.cls-24{fill:#82cdef;}.cls-26{fill:#efefef;}.cls-27{fill:#f3e2cc;}</style></defs><title>ristruttura</title><g id="Utente_-_arancione-2" data-name="Utente - arancione"><text class="cls-1" transform="translate(170.05 62.9)"><tspan class="cls-2">C</tspan><tspan x="5.12" y="0">ASA</tspan></text><g id="illustration"><path class="cls-3" d="M159.9,141l-5.59-3.23a4.85,4.85,0,0,0,.19-1.29,1.49,1.49,0,0,0,0-.21,9.66,9.66,0,0,0,.48-2.89,4.36,4.36,0,0,0-1.51-3.67v0l-.16-.09-.1-.07-.1-.05L127.41,114.6h0l-7.19-4.17h0l0,0-2.93-1.7c-1.64-.78-3.86,0-6,2a12.27,12.27,0,0,0-3.39,5.87c-.69,2.79-.23,5.07,1.27,6.13l35.9,20.82,0,0,.05,0h0l.34.17h0a3.24,3.24,0,0,0,1.2.23,5.27,5.27,0,0,0,2.62-.8,9.73,9.73,0,0,0,2.33-1.93l.18-.09a4.5,4.5,0,0,0,1-.81l5.59,3.23a.87.87,0,0,1,0,1.48l-.49.27a26.59,26.59,0,0,1-26.91,0l-8.66-5.08a7.38,7.38,0,0,0-7.49,0l-13.6,7.89c-1-1-2.14-1.33-3-.92L77,159.79h0l-.09.06,0,0a2.24,2.24,0,0,0-.81,1.89,6.08,6.08,0,0,0,2.79,4.83,2.76,2.76,0,0,0,1.35.41,1.71,1.71,0,0,0,.64-.14h0l.15-.08,0,0,0,0,21.26-12.61c.83-.57,1.06-1.82.63-3.34a2.67,2.67,0,0,0-.09-.26l13.5-7.83a4.46,4.46,0,0,1,4.52,0l8.66,5.08a29.48,29.48,0,0,0,29.86,0l.49-.27a3.8,3.8,0,0,0,0-6.56Z"/><path class="cls-4" d="M97.61,139.21l-11.29,6.52a5.47,5.47,0,0,1-4.92-.21l-10.58-6.1c-1.46-.85-1.62-2.12-.36-2.85l4.84-2.79c4.82-2.79,13.25-2.44,18.83.78l3.13,1.8C98.72,137.21,98.87,138.48,97.61,139.21Z"/><ellipse class="cls-4" cx="37.71" cy="127.76" rx="17.27" ry="31.34" transform="translate(-93.34 151.63) rotate(-83.88)"/><ellipse class="cls-4" cx="199.23" cy="131.27" rx="26.08" ry="15.06"/><path class="cls-3" d="M74.42,34H37.34V66h0c0,2.74,1.81,5.47,5.43,7.56,7.24,4.18,19,4.18,26.22,0,3.62-2.09,5.43-4.83,5.43-7.56h0Z"/><path class="cls-5" d="M55.88,77.1a27.13,27.13,0,0,1-13.29-3.18C39,71.83,37,69,37,66V33.59H74.79V66c0,3-2,5.79-5.62,7.88A27.13,27.13,0,0,1,55.88,77.1ZM37.71,34.32V66c0,2.72,1.86,5.29,5.25,7.25,7.12,4.11,18.72,4.11,25.85,0,3.38-2,5.24-4.53,5.24-7.25V34.32Z"/><rect class="cls-5" x="23.69" y="54.87" width="32.05" height="0.73" transform="translate(-15.56 94.9) rotate(-89.94)"/><rect class="cls-5" x="70.24" y="40.46" width="0.73" height="32.08"/><rect class="cls-5" x="68.4" y="41.64" width="0.73" height="32.08"/><rect class="cls-5" x="64.08" y="43.51" width="0.73" height="32.08"/><path class="cls-6" d="M68.06,41a9.45,9.45,0,0,1-2.37,3.53,14.4,14.4,0,0,1-2.42,1.83c-1.13.68-2.24,1.73-1.78,3.1.84,2.55-2.48,2.82-1.85,0,.56-2.53-.53-3.37-2.06-3.24s-2.09,2.84-1.34,5.89.11,4.48-1.47,4.43-1.77-3-1.07-4.88.28-6.08-2.25-5.37c-1.35.38-3.5,2.05-4.84-1a9.54,9.54,0,0,0-3.15-3.72L68.3,40.38Z"/><path class="cls-7" d="M47.93,45.14a9.49,9.49,0,0,0-2.85-3.5l-1.62.08a9.56,9.56,0,0,1,3.15,3.71c1,2.2,2.32,2,3.52,1.52C49.33,47,48.54,46.55,47.93,45.14Z"/><path class="cls-7" d="M55,51.53c.7-1.89.28-6.07-2.25-5.36a5.32,5.32,0,0,0-.63.22c1.91.18,2.19,3.72,1.56,5.43-.7,1.9-.5,4.84,1.07,4.89a1.63,1.63,0,0,0,1.09-.33C54.5,56.06,54.36,53.33,55,51.53Z"/><path class="cls-7" d="M61,49.34c.56-2.54-.53-3.37-2.06-3.25a1.29,1.29,0,0,0-.72.3c1.2.14,1.94,1,1.46,3.24s1.16,2.45,1.76,1.56A1.67,1.67,0,0,1,61,49.34Z"/><path class="cls-5" d="M54.85,56.92h-.09a1.55,1.55,0,0,1-1.26-.74c-.75-1.11-.67-3.23-.15-4.64s.37-3.63-.48-4.56a1.22,1.22,0,0,0-1.32-.33c-.22.06-.48.17-.76.28-1.31.54-3.27,1.34-4.52-1.51a9.11,9.11,0,0,0-3-3.55l-.95-.62L68.84,40l-.44,1.17a9.66,9.66,0,0,1-2.46,3.66,15.89,15.89,0,0,1-2.48,1.88c-1.39.83-1.94,1.73-1.63,2.66a1.91,1.91,0,0,1-.42,2.22,1.31,1.31,0,0,1-1.5.08,2,2,0,0,1-.63-2.26A2.76,2.76,0,0,0,59.06,47a1.64,1.64,0,0,0-1.45-.44,1,1,0,0,0-.75.47c-.66.91-.77,2.91-.26,5s.42,3.43-.22,4.22A1.9,1.9,0,0,1,54.85,56.92ZM52,45.85a1.87,1.87,0,0,1,1.41.63c1.14,1.25,1.14,3.93.63,5.31a5.18,5.18,0,0,0,.07,4,.83.83,0,0,0,.67.42,1.21,1.21,0,0,0,1-.4c.47-.59.5-1.86.08-3.59-.57-2.29-.42-4.47.37-5.57a1.76,1.76,0,0,1,1.29-.77,2.38,2.38,0,0,1,2.06.68,3.36,3.36,0,0,1,.39,3c-.16.71,0,1.26.3,1.48A.56.56,0,0,0,61,51a1.24,1.24,0,0,0,.18-1.4c-.3-.9-.21-2.24,1.94-3.53a14.4,14.4,0,0,0,2.36-1.79,8.93,8.93,0,0,0,2.27-3.39l.35.13-.35-.13.05-.11L44.47,41.88a9.37,9.37,0,0,1,2.47,3.25c1,2.19,2.23,1.67,3.57,1.12a7.87,7.87,0,0,1,.84-.3A2.14,2.14,0,0,1,52,45.85Z"/><path class="cls-8" d="M69,26.39c7.24,4.18,7.24,11,0,15.13s-19,4.18-26.22,0-7.24-11,0-15.13S61.75,22.21,69,26.39Z"/><path class="cls-5" d="M55.88,45.19A27.35,27.35,0,0,1,42.5,42c-3.68-2.12-5.71-5-5.71-8s2-5.92,5.71-8c7.38-4.26,19.39-4.26,26.76,0C72.94,28,75,30.89,75,34s-2,5.93-5.71,8A27.32,27.32,0,0,1,55.88,45.19Zm0-21.39a26.26,26.26,0,0,0-12.83,3.06c-3.33,1.92-5.16,4.44-5.16,7.09s1.83,5.18,5.16,7.1c7.08,4.08,18.59,4.08,25.66,0,3.33-1.92,5.16-4.44,5.16-7.1S72,28.78,68.71,26.86A26.23,26.23,0,0,0,55.88,23.8Z"/><ellipse class="cls-4" cx="55.88" cy="33.95" rx="15.42" ry="8.9"/><path class="cls-5" d="M55.88,43.21A22.69,22.69,0,0,1,44.8,40.57c-3-1.75-4.7-4.1-4.7-6.62s1.67-4.86,4.7-6.61c6.11-3.52,16.05-3.53,22.17,0,3,1.75,4.69,4.1,4.69,6.61S70,38.82,67,40.57A22.76,22.76,0,0,1,55.88,43.21Zm0-17.79A21.9,21.9,0,0,0,45.16,28c-2.79,1.61-4.33,3.73-4.33,6s1.54,4.37,4.33,6c5.91,3.41,15.53,3.41,21.44,0,2.79-1.61,4.33-3.73,4.33-6s-1.54-4.36-4.33-6A21.9,21.9,0,0,0,55.88,25.42Z"/><ellipse class="cls-9" cx="55.88" cy="35.43" rx="2.7" ry="1.56"/><path class="cls-5" d="M55.88,35.88a4.33,4.33,0,0,1-2.09-.5,1.53,1.53,0,0,1,0-2.85,4.62,4.62,0,0,1,4.19,0,1.53,1.53,0,0,1,0,2.85A4.4,4.4,0,0,1,55.88,35.88Zm0-3.12a3.57,3.57,0,0,0-1.73.41.81.81,0,0,0,0,1.57,3.9,3.9,0,0,0,3.46,0,.81.81,0,0,0,0-1.57A3.57,3.57,0,0,0,55.88,32.76Z"/><path class="cls-9" d="M45,29.55c6-3.47,15.78-3.47,21.8,0,2.56,1.48,4,3.34,4.41,5.26a0,0,0,0,0,0,0c.43-2.55-1-5.19-4.44-7.15-6-3.47-15.78-3.47-21.8,0-3.39,2-4.87,4.6-4.44,7.15a0,0,0,0,0,0,0C41,32.89,42.43,31,45,29.55Z"/><path class="cls-5" d="M40.55,35.19h-.31l-.06-.32c-.47-2.82,1.21-5.56,4.62-7.53,6.11-3.53,16.05-3.53,22.17,0,3.4,2,5.09,4.71,4.62,7.53l-.06.31h-.62l-.08-.3c-.38-1.91-1.85-3.64-4.23-5-5.91-3.41-15.53-3.41-21.44,0h0c-2.38,1.38-3.85,3.11-4.23,5l-.06.3Zm15.33-8.6A22.62,22.62,0,0,1,67,29.24a10.17,10.17,0,0,1,3.81,3.53C70.34,31,68.89,29.3,66.6,28c-5.91-3.41-15.53-3.41-21.44,0A8.2,8.2,0,0,0,41,32.76a10.27,10.27,0,0,1,3.82-3.52h0A22.59,22.59,0,0,1,55.88,26.59Z"/><path class="cls-4" d="M111.54,57.64c-4.8-2.77-8.68-9.51-8.68-15,0-2.7.92-4.61,2.43-5.54l0,0-70.57,44L32.09,82.7l-3.21,2h0c-4.44-2.86-8.38-.9-8.67,4.38-.32,5.65,3.69,12.81,8.67,15.68l93.6,53.55a1.67,1.67,0,0,0,1.66,0l81.11-46.51Z"/><path class="cls-10" d="M109.22,53.72c-4.8-2.77-8.69-9.51-8.69-15,0-2.7.93-4.6,2.43-5.54v0l-70.58,44-2.6,1.64-3.22,2h0c-4.44-2.86-8.37-.89-8.66,4.39-.32,5.64,3.68,12.8,8.66,15.67l93.61,53.55a1.67,1.67,0,0,0,1.66,0l81.11-46.51Z"/><path class="cls-6" d="M198.71,108c0-.32-80.55,45-80.55,45,.31.17,0,0,2.18,1.41a1.6,1.6,0,0,0,1.66,0l81.11-46.51Z"/><path class="cls-5" d="M121,155a2.11,2.11,0,0,1-1-.26L26.37,101.18c-5.12-3-9.17-10.29-8.85-16,.15-2.68,1.2-4.65,3-5.55s3.87-.61,6.07.75l3-1.9,2.61-1.64,70.94-44.27.28.69-.25.19c-1.45.91-2.25,2.77-2.25,5.23,0,5.42,3.81,12,8.5,14.73l94.26,54.5L122,154.72A2,2,0,0,1,121,155ZM22.65,79.85a3.89,3.89,0,0,0-1.83.43c-1.52.77-2.43,2.52-2.57,4.93-.3,5.48,3.58,12.5,8.49,15.34l93.6,53.54a1.31,1.31,0,0,0,1.3,0l80.55-46.2L109,54c-4.89-2.83-8.87-9.72-8.87-15.37a8.43,8.43,0,0,1,.86-3.94L32.57,77.45,30,79.09h0l-1.6,1c-1.81,1.14-1.81,1.14-2,1A6.92,6.92,0,0,0,22.65,79.85Z"/><path class="cls-11" d="M116.68,58.09l-7.46-4.31c-4.8-2.77-8.69-9.51-8.69-15.05a8,8,0,0,1,.8-3.71l-.74-.39L32.37,77.2l-2.6,1.64L24,79.71c-3.29-.8-5.86,1.31-6.09,5.53-.32,5.65,3.68,12.81,8.66,15.68l7,4a.55.55,0,0,0,.54,0Z"/><path class="cls-5" d="M33.8,105.35a1,1,0,0,1-.46-.12l-4.06-2.32-2.91-1.67c-5.12-2.95-9.17-10.29-8.85-16a6.65,6.65,0,0,1,2.32-5.14A4.93,4.93,0,0,1,24,79.34l5.64-.85,2.54-1.6,68.4-42.69,1.25.66-.17.33a7.56,7.56,0,0,0-.76,3.54c0,5.42,3.81,12,8.5,14.73l8,4.64-.56.31L34.25,105.24A1,1,0,0,1,33.8,105.35ZM22.64,79.91a3.89,3.89,0,0,0-2.36.76,6,6,0,0,0-2,4.6c-.3,5.48,3.58,12.5,8.49,15.34l2.91,1.66,4.06,2.32a.19.19,0,0,0,.18,0L116,58.09l-6.92-4c-4.89-2.83-8.87-9.72-8.87-15.37a8.52,8.52,0,0,1,.69-3.55l-.24-.13-68,42.46L29.82,79.2,24,80.09l-.07,0A5.56,5.56,0,0,0,22.64,79.91Z"/><path class="cls-10" d="M114.14,38.6a16.78,16.78,0,0,0-5.15-5c-2.45-1.41-4.66-1.51-6.24-.54h0l-82.31,47c1.55-.78,3.63-.61,5.92.71a16.93,16.93,0,0,1,5.23,5h0Z"/><path class="cls-5" d="M31.45,86.31,31.26,86a16.54,16.54,0,0,0-5.11-4.94c-2.09-1.21-4.07-1.46-5.58-.7l-.34-.65,82.49-47.06h0c1.75-1,4-.74,6.43.65a17.17,17.17,0,0,1,5.27,5l.23.33-.35.2Zm-8.84-7.08a8.38,8.38,0,0,1,3.9,1.22,17.07,17.07,0,0,1,5.16,4.89l81.94-46.86a16.23,16.23,0,0,0-4.8-4.51c-2.25-1.3-4.33-1.49-5.87-.54l-.18.11,0,0Z"/><rect class="cls-5" x="112.15" y="129.46" width="95.25" height="0.73" transform="translate(-43.23 95.6) rotate(-29.53)"/><rect class="cls-5" x="23.48" y="59.63" width="95.25" height="0.73" transform="translate(-20.33 42.82) rotate(-29.52)"/><path class="cls-5" d="M120.85,106.39l-17.23-10-12.9,7.44,17.23,10Zm-1.47,0L114,109.48l-15.76-9.11,5.35-3.09Zm-21.85-5.6,15.77,9.11L108,113l-15.77-9.11Z"/><path class="cls-5" d="M160.83,96.86l-9.94-5.74h0l-6.55-3.78-6,3.48L123,82l6-3.48-4-2.34L81.15,95.73l-.13.06L77.17,104,81,106.2l2.54-1.47,6.56,3.79L86,110.91l14.59,8.42h0l10,5.74-4.14,2.39-39.9-23-.37.64,2,1.18.2,3.34.73,0-.17-2.86,2.26,1.3.2,3.35.74,0-.17-2.87L74,109.64l.2,3.35.73,0-.17-2.86,2.26,1.31.2,3.34.73,0-.17-2.86,2.41,1.39.2,3.34.74,0L81,113.66l2.11,1.22.19,3.34.74,0-.17-2.86,2.26,1.3.2,3.35.73,0-.17-2.86,2.26,1.31.2,3.34.73,0-.17-2.86,2.26,1.3.2,3.35.73,0-.17-2.86L95,121.77l.2,3.34.73,0-.17-2.86,2.26,1.3.2,3.35.74,0L98.82,124l2.11,1.22.2,3.35.74-.05-.18-2.86,4.67,2.7,4.87-2.81h0l4.76-2.75h0l2.56-1.48h0Zm-16.49-8.68,5.08,2.94-2.26,1.31-3,1.75L139,91.24Zm-33.43,4.89,10.17,5.87-3.71,2.14L107.2,95.21Zm10.9,5.44-10.16-5.86,12.59-7.28,10.16,5.87Zm13.33-7.69L125,85l.85-.49L136,90.33Zm-57,12.88,3.45-7.35L124.91,77l2.62,1.51L81,105.35Zm42.25-20.24,1.86-1.08L125.09,84,105.74,95.21l11.63,6.71,19.35-11.17.86.49h0l5.82,3.36-20.58,11.88-17.4,10-4-2.34-17.12-9.88ZM87.42,110.91l3.4-2,13.86,8-.09.06-3.3,1.9Zm23.81,13.74L102,119.33l25.46-14.69L144.13,95h0l6-3.48,9.21,5.32-41.55,24-2-1.14L141.42,105l-2.88-1.66-28.13,16.24,4.85,2.8ZM116,121.9l-4.11-2.37,26.66-15.39L140,105l-25.57,14.76,2.7,1.56-.4.23Z"/><path class="cls-5" d="M146,99.67,143.15,98l-5,2.86,2.88,1.67Zm-2.87-.82,1.41.82-3.5,2-1.41-.82Z"/><path class="cls-5" d="M80.88,100.65l2.88,1.66,5-2.87-2.88-1.66Zm2.88.81-1.41-.81,3.49-2,1.42.81Z"/><path class="cls-12" d="M144.55,117.73a2.37,2.37,0,0,1-1-.91c-.1-.28.1-.56.62-.86a2.33,2.33,0,0,1,1.48-.36,4.39,4.39,0,0,1,1.59.6l3.15,1.81a2.75,2.75,0,0,1,1.11,1c.13.28-.06.58-.59.88a2.23,2.23,0,0,1-1.52.34,5,5,0,0,1-1.66-.64Zm1.85-1.11q-1-.56-1.44-.36l-.19.1a.6.6,0,0,0-.19.16c0,.06,0,.15.07.27a2.14,2.14,0,0,0,.63.47l3.21,1.85,0,0a2.87,2.87,0,0,0,1.28.49.8.8,0,0,0,.36-.11,1.76,1.76,0,0,0,.22-.14.19.19,0,0,0,.07-.13c0-.17-.23-.42-.82-.76h0Z"/><path class="cls-12" d="M148,115.75a2.29,2.29,0,0,1-1-.91c-.1-.27.1-.56.62-.85a2.33,2.33,0,0,1,1.48-.36,4.06,4.06,0,0,1,1.59.59l3.15,1.82a2.61,2.61,0,0,1,1.11.95c.14.29-.06.58-.58.89a2.38,2.38,0,0,1-1.53.34,5.1,5.1,0,0,1-1.66-.65Zm1.84-1.11q-1-.56-1.44-.36l-.19.1a.57.57,0,0,0-.18.16q-.07.09.06.27a2.11,2.11,0,0,0,.63.47l3.21,1.86h0a2.66,2.66,0,0,0,1.29.49.76.76,0,0,0,.36-.11l.21-.13a.22.22,0,0,0,.08-.14c0-.16-.24-.41-.83-.75l0,0Z"/><path class="cls-12" d="M151.4,113.78a2.26,2.26,0,0,1-1-.92c-.11-.27.1-.55.61-.85a2.36,2.36,0,0,1,1.49-.36,4.35,4.35,0,0,1,1.59.59l3.14,1.82a2.68,2.68,0,0,1,1.11,1c.14.29-.06.59-.58.89a2.31,2.31,0,0,1-1.53.34,4.84,4.84,0,0,1-1.65-.65Zm1.85-1.12a1.82,1.82,0,0,0-1.44-.35,1.22,1.22,0,0,0-.2.1.45.45,0,0,0-.18.15c-.05.06,0,.15.06.27a2.36,2.36,0,0,0,.64.48l3.21,1.85,0,0a2.7,2.7,0,0,0,1.28.48.88.88,0,0,0,.36-.1,1,1,0,0,0,.21-.14.22.22,0,0,0,.08-.13c0-.17-.24-.42-.82-.76h0Z"/><path class="cls-12" d="M154,110.36l.54-.32,6.59,3.8-.77.45-5.55-3.2a.42.42,0,0,1-.12.34,1.25,1.25,0,0,1-.37.31l-.54-.31a.91.91,0,0,0,.35-.5A.72.72,0,0,0,154,110.36Z"/><path class="cls-12" d="M157.24,110.41a2.3,2.3,0,0,1-1-.92c-.1-.27.1-.55.62-.85a2.34,2.34,0,0,1,1.48-.36,4.4,4.4,0,0,1,1.59.59l3.15,1.82a2.61,2.61,0,0,1,1.11,1c.14.28-.06.58-.58.88a2.32,2.32,0,0,1-1.53.34,4.88,4.88,0,0,1-1.66-.65Zm1.84-1.12c-.64-.36-1.12-.48-1.43-.35a1.22,1.22,0,0,0-.2.1.45.45,0,0,0-.18.15q-.08.09.06.27a2.27,2.27,0,0,0,.63.48l3.21,1.85,0,0a2.73,2.73,0,0,0,1.29.48.88.88,0,0,0,.36-.1l.21-.14a.22.22,0,0,0,.08-.13c0-.17-.24-.42-.83-.76h0Z"/><path class="cls-12" d="M161.42,108.61c-1-.6-1.55-1-1.57-1.28a.59.59,0,0,1,0-.27,1.11,1.11,0,0,1,.53-.49c.72-.41,1.69-.27,2.9.43a3.37,3.37,0,0,1,1.32,1.3c.12.23.23.45.33.68a3.72,3.72,0,0,0,1.07,1.37l1.44-.83.58.33-2.19,1.27-.37-.22a4.23,4.23,0,0,1-1.45-1.7l-.22-.41a3.26,3.26,0,0,1-.24-.47,2,2,0,0,0-.41-.47,5.41,5.41,0,0,0-.7-.49,5.46,5.46,0,0,0-.7-.34,1.67,1.67,0,0,0-.47-.11.51.51,0,0,0-.28.07.36.36,0,0,0-.14.13c-.07.17.21.43.85.8l.85.49-.75.44Z"/><path class="cls-12" d="M164,106.5a2.2,2.2,0,0,1-1-.91c-.11-.27.1-.56.61-.85a2.34,2.34,0,0,1,1.48-.36,4.06,4.06,0,0,1,1.59.59l3.15,1.82a2.68,2.68,0,0,1,1.11.95c.14.29-.06.58-.58.89a2.38,2.38,0,0,1-1.53.34,5.19,5.19,0,0,1-1.66-.65Zm1.84-1.11c-.64-.37-1.11-.49-1.43-.36l-.2.1a.57.57,0,0,0-.18.16q-.08.09.06.27a2.26,2.26,0,0,0,.63.47l3.21,1.86h0a2.7,2.7,0,0,0,1.29.49.76.76,0,0,0,.36-.11,1.7,1.7,0,0,0,.21-.13.22.22,0,0,0,.08-.14c0-.16-.24-.41-.82-.75l0,0Z"/><path class="cls-12" d="M170.83,104.24a3.35,3.35,0,0,1,2.34.56c.64.37,1,.71,1.11,1s-.09.58-.55.85a2.21,2.21,0,0,1-1.42.3,4.59,4.59,0,0,1-1.69-.64l-.29-.17.75-.43.3.17a4.84,4.84,0,0,0,1,.49.87.87,0,0,0,.66-.1c.22-.13.27-.27.17-.42a3.49,3.49,0,0,0-.88-.64,4,4,0,0,0-1.17-.49,1.25,1.25,0,0,0-.84.15l-.21.12-.62-.35.21-.12a.89.89,0,0,0,.33-.29c.07-.18-.19-.44-.77-.78h0a2.84,2.84,0,0,0-1-.42,1,1,0,0,0-.61.12c-.17.09-.22.21-.14.35a2.25,2.25,0,0,0,.72.55l.16.09-.76.44-.17-.1c-.59-.34-.93-.64-1-.92s.09-.53.54-.8a2.4,2.4,0,0,1,1.42-.32A3.82,3.82,0,0,1,170,103C170.85,103.48,171.11,103.89,170.83,104.24Z"/><path class="cls-12" d="M170.6,100.77l.8-.46,4.73,2.73.54-.31.61.35-.54.32,1.25.72-.71.4L176,103.8l-1.56.9-.54-.31Zm4.82,2.68-3.42-2,2.5,2.51Z"/><ellipse class="cls-4" cx="33.83" cy="123.74" rx="15.86" ry="28.78" transform="translate(-92.81 144.18) rotate(-83.88)"/><path class="cls-5" d="M37.61,140.16A49.72,49.72,0,0,1,17.51,136c-7.5-3.41-12.12-8.31-12.66-13.45-.4-3.71,1.36-7.12,5.09-9.87,9-6.66,27.05-7.22,40.21-1.25,7.51,3.41,12.13,8.31,12.67,13.45.39,3.71-1.37,7.12-5.09,9.88C52.9,138.34,45.48,140.16,37.61,140.16ZM30,108c-7.7,0-14.94,1.78-19.66,5.26-3.5,2.59-5.16,5.77-4.79,9.21.51,4.87,5,9.55,12.24,12.85,12.94,5.88,30.65,5.35,39.47-1.16,3.5-2.59,5.16-5.78,4.8-9.21-.51-4.88-5-9.56-12.24-12.86h0A48.89,48.89,0,0,0,30,108Z"/><path class="cls-9" d="M50.83,112l6.46,10.53s4.3,2.75,3.87,7.76C64.7,124.2,60.83,116.81,50.83,112Z"/><path class="cls-5" d="M60.65,131.84l.14-1.62c.41-4.72-3.66-7.39-3.7-7.42l-.11-.12-7.11-11.59,1.13.54c6,2.94,10.08,6.9,11.37,11.15a9.41,9.41,0,0,1-.9,7.66Zm-3.09-9.61a9.42,9.42,0,0,1,3.95,6.44,8.63,8.63,0,0,0,.16-5.68c-1.15-3.78-4.62-7.34-9.84-10.11Z"/><path class="cls-9" d="M9.27,130.06a11.13,11.13,0,0,1,0-12.32c1.32-2.06,1.27-3.61.57-4.77C3.49,117.81,3.62,124.51,9.27,130.06Z"/><path class="cls-5" d="M9,130.32c-3-3-4.51-6.25-4.3-9.49.19-3,1.9-5.85,4.93-8.15l.33-.25.21.35c.87,1.46.67,3.19-.59,5.16a10.7,10.7,0,0,0,0,11.91Zm.73-16.79c-2.64,2.12-4.13,4.65-4.3,7.35a10.33,10.33,0,0,0,2.24,6.8A11.33,11.33,0,0,1,9,117.54C10,116,10.22,114.66,9.74,113.53Z"/><path class="cls-4" d="M56.87,119.44h0S51.09,96.2,31,95.1c-19.33-1-24.23,22.48-24.23,22.48h0c-1.29,5,2.5,10.45,10.63,14,11.51,5,27.35,4.27,35.37-1.66C56.88,126.89,58.15,123.1,56.87,119.44Z"/><path class="cls-13" d="M32.92,124.9c4.1-3,5.36-6.81,4.09-10.47h0s-3-11.88-12-19.05c-14.41,3.41-18.29,22-18.29,22h0c-1.12,4.35,1.62,9.06,7.73,12.54C21.64,129.88,28.48,128.19,32.92,124.9Z"/><path class="cls-5" d="M34.28,135.25a43.51,43.51,0,0,1-17-3.34c-8-3.48-12.12-8.91-10.89-14.23l0-.17c0-.24,5.2-23.84,24.61-22.77,20.12,1.09,26.15,24.38,26.2,24.61v0c1.33,3.91-.21,7.85-4.23,10.83C48.51,133.54,41.56,135.25,34.28,135.25Zm-27-18h0l-.12.46c-1.29,5,2.71,10.19,10.43,13.55,11.38,5,27.09,4.24,35-1.61,3.83-2.83,5.23-6.4,4-10.06l-.17-.48h0C55.45,115.84,49,96.45,31,95.47,13.63,94.54,8.05,114,7.24,117.22Z"/><path class="cls-14" d="M51.23,108.35c-5.53-12.31-12.8-17.9-20.34-17A9.84,9.84,0,0,0,28,92.2l-7,3.48-.13,1.06,6.77-.7,8,4.59,3.18,5.7,5.39,7.32,2.88,14.07,1.19,6.46.07,0L55,129.64a1.39,1.39,0,0,0,.61-1.08C55.78,126.28,55.83,118.61,51.23,108.35Z"/><path class="cls-5" d="M48.42,134.63l-.36-.16-.11-.22-1.19-6.47-2.86-14-5.34-7.27L35.4,100.9l-7.85-4.48-7.12.74.23-1.72,7.12-3.57A10.5,10.5,0,0,1,30.85,91c7.94-1,15.3,5.15,20.71,17.21h0c4.66,10.39,4.58,18.23,4.44,20.39a1.8,1.8,0,0,1-.77,1.35Zm-20.71-39,8.23,4.7,3.24,5.79,5.42,7.43,2.88,14.06,1.1,6,6.23-4.3a1,1,0,0,0,.46-.79c.13-2.11.21-9.81-4.38-20-5.26-11.74-12.35-17.7-20-16.78a9.51,9.51,0,0,0-2.83.82l-6.77,3.38,0,.41Z"/><path class="cls-4" d="M47.17,120.88,46,122.16l1.14,5.56,1.18,6.46.08,0L55,129.64a1.42,1.42,0,0,0,.61-1.08,38.94,38.94,0,0,0-1.59-12.42Z"/><path class="cls-5" d="M48.43,134.63l-.37-.16-.11-.22-1.18-6.47-1.18-5.73L47,120.58l7.31-5,.14.49A38.89,38.89,0,0,1,56,128.59a1.78,1.78,0,0,1-.76,1.35Zm-2-12.36,1.1,5.37,1.09,6,6.24-4.3a1,1,0,0,0,.45-.79,37.64,37.64,0,0,0-1.44-11.8l-6.42,4.42Z"/><path class="cls-9" d="M15.41,101.18S26.05,90,36.69,104.46,46,133.22,46,133.22l2.26,1a.05.05,0,0,0,.07,0c.1-.86,1.05-10.53-4.22-22.28-5.53-12.31-12.8-17.9-20.34-17-8.66,1-13.67,13.74-13.67,13.74A34.49,34.49,0,0,1,15.41,101.18Z"/><path class="cls-5" d="M48.28,134.59a.47.47,0,0,1-.17,0l-2.5-1.11,0-.26c0-.14,1.17-14.32-9.25-28.51-3.35-4.56-7-7-10.93-7.25-5.58-.33-9.75,4-9.79,4h0a34.79,34.79,0,0,0-5.25,7.4l-.67-.3c.21-.53,5.2-12.92,14-14,8-1,15.31,5.15,20.72,17.21,5.28,11.76,4.37,21.41,4.25,22.47l0,.19-.19.12A.35.35,0,0,1,48.28,134.59Zm-1.9-1.6,1.63.72a45.9,45.9,0,0,0-4.24-21.65c-5.27-11.74-12.35-17.7-20-16.78-3.63.44-6.62,3-8.85,5.83l.18-.19c.2-.2,4.45-4.58,10.37-4.22,4.13.26,8,2.8,11.47,7.54A47,47,0,0,1,46.38,133Z"/><rect class="cls-5" x="45.64" y="115.21" width="8.25" height="0.73" transform="translate(-56.53 48.22) rotate(-34.34)"/><rect class="cls-5" x="25.56" y="92.7" width="8.13" height="0.73" transform="translate(-37.63 22.24) rotate(-25.86)"/><path class="cls-3" d="M199.68,171.26l-25.07,14.47a2.79,2.79,0,0,1-2.82,0l-25.06-14.47a1.16,1.16,0,0,1,0-2l25.89-15a1.15,1.15,0,0,1,1.16,0l25.9,15A1.17,1.17,0,0,1,199.68,171.26Z"/><polygon class="cls-3" points="197.61 160.54 171.23 175.77 144.85 160.54 171.23 145.31 197.61 160.54"/><polygon class="cls-3" points="144.85 160.54 144.85 166.72 171.23 181.96 171.23 175.77 144.85 160.54"/><polygon class="cls-15" points="197.61 160.54 197.61 166.72 171.23 181.96 171.23 175.77 197.61 160.54"/><path class="cls-12" d="M198,160.32l-.38-.22-26.38-15.23L144.85,160.1l-.38.22v6.62l26.38,15.23.38.22.38-.22,26.19-15.12.19-.11v-6.62Zm-26.76-14.58,25.62,14.8-11.93,6.89-13.69,7.9-25.62-14.79Zm-26,20.76v-5.31L170.85,176v5.31Zm52,0-25.62,14.8V176l25.62-14.8Z"/><path class="cls-3" d="M171.23,145.31l-16.62,9.59h0a7.72,7.72,0,0,1-8.27-.23c-.48,4.85,4.56,9,6.66,10.49a6.15,6.15,0,0,0,.77.53l17.46,10.08,26.38-15.23Z"/><path class="cls-13" d="M153.91,165.69l17.46,10.08,23.71-13.69L171.56,148.5l-16.62,9.59h0a7.7,7.7,0,0,1-7.94,0c1.29,3.31,4.55,6,6.14,7.09A6.15,6.15,0,0,0,153.91,165.69Z"/><path class="cls-12" d="M171.23,176.21,153.58,166a5.72,5.72,0,0,1-.81-.57c-2.21-1.57-7.31-5.79-6.81-10.82L146,154l.54.4a7.26,7.26,0,0,0,7.85.21l16.81-9.7,26.36,15.22a.52.52,0,0,1,0,.9Zm-24.54-20.88c0,4.36,4.52,8.08,6.53,9.52a6.62,6.62,0,0,0,.74.51l17.27,10,25.62-14.79-25.62-14.8-16.43,9.49A8.15,8.15,0,0,1,146.69,155.33Z"/><path class="cls-12" d="M174,151.16a3.67,3.67,0,0,1-1.81-.44,1.36,1.36,0,0,1,0-2.53l5.94-3.43a5.09,5.09,0,0,1,4.68,0,1.68,1.68,0,0,1,0,3.14l-3.8,2.19-.37-.66,3.79-2.19a.95.95,0,0,0,0-1.83,4.43,4.43,0,0,0-3.92,0l-5.94,3.44c-.31.17-.48.39-.48.6s.17.43.48.61a3.2,3.2,0,0,0,2.86,0l5.32-3.08.38.66-5.33,3.08A3.66,3.66,0,0,1,174,151.16Z"/><polygon class="cls-12" points="171.04 177.9 144.66 163.02 145.03 162.6 171.41 177.48 171.04 177.9"/><polygon class="cls-12" points="171.04 180.31 144.66 165.15 145.04 164.73 171.42 179.89 171.04 180.31"/><polygon class="cls-12" points="171.42 178.11 171.41 177.44 197.42 162.56 197.39 163.23 171.42 178.11"/><polygon class="cls-12" points="171.42 180.13 171.41 179.47 197.42 164.59 197.39 165.25 171.42 180.13"/><path class="cls-3" d="M98.77,185.31l-3.69-3.55-.06,0a2.48,2.48,0,0,0-1.17-1.52L45.06,152.45a2.5,2.5,0,1,0-2.48,4.35l48.79,27.78a2.46,2.46,0,0,0,1.69.27l.17.14,4.82,1.54a.73.73,0,0,0,.72-1.22Z"/><path class="cls-7" d="M93.27,177.1,44.48,149.33a2.49,2.49,0,0,0-3.41.93h0a2.5,2.5,0,0,0,.94,3.42l48.78,27.78a2.51,2.51,0,0,0,3.42-.94h0A2.52,2.52,0,0,0,93.27,177.1Z"/><path class="cls-16" d="M93.8,178.71,45,150.94a2.5,2.5,0,0,0-3.42.93h0c-.68,1.21.47,2,1.67,2.66l48.06,27.09c1.2.69,2.67,1,3.35-.2h0C95.36,180.21,95,179.4,93.8,178.71Z"/><path class="cls-12" d="M90.61,181.78,41.82,154a2.87,2.87,0,0,1-1.07-3.92,2.82,2.82,0,0,1,1.73-1.35,2.89,2.89,0,0,1,2.19.28l48.79,27.77a2.91,2.91,0,0,1,1.35,1.74,2.86,2.86,0,0,1-.28,2.18,2.81,2.81,0,0,1-1.74,1.35,2.79,2.79,0,0,1-2.18-.27ZM42.68,149.45a2.09,2.09,0,0,0-1.29,1,2.13,2.13,0,0,0-.2,1.62,2.09,2.09,0,0,0,1,1.29L91,181.14a2.13,2.13,0,0,0,2.11-3.71L44.3,149.65a2.09,2.09,0,0,0-1-.28A1.87,1.87,0,0,0,42.68,149.45Z"/><rect class="cls-15" x="44.92" y="154.81" width="22.5" height="2.22" rx="1.01" transform="translate(84.5 -7.37) rotate(29.65)"/><rect class="cls-3" x="44.76" y="155.73" width="22.5" height="2.22" rx="1.01" transform="translate(84.93 -7.17) rotate(29.65)"/><path class="cls-12" d="M64.33,162.27,46.54,152.14a1.37,1.37,0,0,1-.52-1.88l.1-.17a1.38,1.38,0,0,1,1.88-.52L65.8,159.7a1.38,1.38,0,0,1,.51,1.89l-.09.17a1.4,1.4,0,0,1-.84.65,1.5,1.5,0,0,1-.37.05A1.4,1.4,0,0,1,64.33,162.27ZM47.15,150.15a.66.66,0,0,0-.39.3l-.1.17a.66.66,0,0,0,.24.88l17.8,10.13a.64.64,0,0,0,.49.06.6.6,0,0,0,.38-.3l.1-.17a.64.64,0,0,0,.06-.49.63.63,0,0,0-.3-.38l-17.8-10.13a.56.56,0,0,0-.31-.09Z"/><path class="cls-15" d="M92.66,181.87l-.41-.33a1.8,1.8,0,0,1-.32-2.42h0a1.78,1.78,0,0,1,2-.66l.57.18,3.7,3.55a.71.71,0,0,1,.12.88h0a.72.72,0,0,1-.85.34Z"/><path class="cls-3" d="M93.9,179.59a1.8,1.8,0,0,0-2,.67,1.91,1.91,0,0,0-.16.27,1.76,1.76,0,0,0,.58.89l.41.34,4.81,1.53a.72.72,0,0,0,.54,0l-3.61-3.47Z"/><path class="cls-12" d="M97.36,183.76l-4.81-1.53-.53-.4a2.16,2.16,0,0,1,2-3.73l.65.21,3.76,3.61a1.09,1.09,0,0,1-.76,1.89A1.26,1.26,0,0,1,97.36,183.76Zm-3.54-4.95a1.41,1.41,0,0,0-1.33,2.44l.35.29,4.75,1.51a.34.34,0,0,0,.41-.16.35.35,0,0,0-.06-.43L94.3,179Z"/><polygon class="cls-5" points="91.72 180.58 40.56 151.43 40.92 150.79 91.74 179.75 91.72 180.58"/><path class="cls-17" d="M144.3,141.14l7.77-13.28a0,0,0,0,0,0,0L116,107c-1.38-.66-3.4-.15-5.53,1.9a11.86,11.86,0,0,0-3.28,5.69c-.71,2.84-.16,4.85,1.09,5.72h0l36,20.88A0,0,0,0,0,144.3,141.14Z"/><path class="cls-18" d="M110,112.43a11.78,11.78,0,0,0-3.09,5,3.81,3.81,0,0,0,1.38,3.12l36,20.88h0l6.22-10.64-35-20.28C114.13,109.87,112.11,110.38,110,112.43Z"/><path class="cls-5" d="M144.44,141.64l-.34-.18-36-20.88c-1.49-1-1.95-3.34-1.26-6.13a12.27,12.27,0,0,1,3.39-5.87c2.09-2,4.31-2.74,5.94-2l36.22,21,.08.32-.09.14ZM114.76,107a6.3,6.3,0,0,0-4,2.07,11.61,11.61,0,0,0-3.19,5.51c-.62,2.49-.26,4.49,1,5.34l35.66,20.69L151.58,128l-35.75-20.71A2.5,2.5,0,0,0,114.76,107Z"/><path class="cls-5" d="M111.05,122.28c-1.47-1-1.93-3.33-1.23-6.12a12.09,12.09,0,0,1,3.39-5.86c2.08-2,4.31-2.74,5.94-2l-.32.66c-1.35-.65-3.26,0-5.11,1.83a11.4,11.4,0,0,0-3.19,5.51c-.62,2.49-.27,4.48.94,5.34Z"/><path class="cls-5" d="M118.26,126.46c-1.47-1-1.93-3.33-1.24-6.12a12.24,12.24,0,0,1,3.39-5.86c2.09-2,4.31-2.74,5.94-2l-.31.66c-1.35-.65-3.26,0-5.12,1.83a11.51,11.51,0,0,0-3.19,5.51c-.61,2.48-.26,4.48,1,5.34Z"/><path class="cls-19" d="M153.54,131.29a12,12,0,0,1-5.45,9.44c-3,1.74-5.46.33-5.46-3.14a12.07,12.07,0,0,1,5.46-9.45C151.1,126.4,153.54,127.81,153.54,131.29Z"/><path class="cls-5" d="M145.65,141.85a3.13,3.13,0,0,1-1.6-.42,4.16,4.16,0,0,1-1.78-3.84,12.51,12.51,0,0,1,5.63-9.77,3.69,3.69,0,0,1,6,3.47,12.46,12.46,0,0,1-5.64,9.76A5.33,5.33,0,0,1,145.65,141.85Zm4.87-14.09a4.53,4.53,0,0,0-2.25.7,11.64,11.64,0,0,0-5.27,9.13,3,3,0,0,0,4.9,2.83,11.67,11.67,0,0,0,5.27-9.13,3.48,3.48,0,0,0-1.41-3.21A2.34,2.34,0,0,0,150.52,127.76Z"/><path class="cls-20" d="M148.86,138.9l3.55-6.07h0l-1.82-1.11c-.63-.31-1.56-.07-2.53.86a5.47,5.47,0,0,0-1.5,2.6c-.33,1.31-.07,2.22.49,2.62h0l1.8,1.11Z"/><path class="cls-21" d="M149,136.79l-1.82-1.11a1.36,1.36,0,0,0-.76-.11,2.12,2.12,0,0,0,.59,2.14l1.07.66.92-1.57Z"/><path class="cls-5" d="M148.8,139.3l-.14-.08-1.8-1.12c-.77-.54-1-1.63-.66-3a5.83,5.83,0,0,1,1.6-2.78c1-1,2.12-1.33,2.95-.93l2,1.24,0,.43-3.59,6.16Zm1.21-7.36a2.73,2.73,0,0,0-1.7.9,5.11,5.11,0,0,0-1.4,2.42c-.26,1.06-.13,1.89.36,2.23l1.46.91,3.19-5.45L150.4,132A.85.85,0,0,0,150,131.94Z"/><ellipse class="cls-19" cx="150.59" cy="135.84" rx="3.53" ry="2.04" transform="translate(-42.34 198.33) rotate(-60)"/><path class="cls-5" d="M149.47,139.43a1.69,1.69,0,0,1-.83-.22,2.1,2.1,0,0,1-.91-1.93,5.83,5.83,0,0,1,2.67-4.64,2.12,2.12,0,0,1,2.14-.18,2.1,2.1,0,0,1,.91,1.94,5.83,5.83,0,0,1-2.68,4.63A2.54,2.54,0,0,1,149.47,139.43ZM151.7,133a2,2,0,0,0-.93.29,5.15,5.15,0,0,0-2.31,4,1.17,1.17,0,0,0,1.94,1.12,5.11,5.11,0,0,0,2.32-4,1.41,1.41,0,0,0-.55-1.3A.94.94,0,0,0,151.7,133Z"/><path class="cls-5" d="M96.45,151.63,95,149.09l18.89-11a7.37,7.37,0,0,1,7.48,0l8.66,5.08a26.59,26.59,0,0,0,26.91,0l.49-.27a.84.84,0,0,0,.41-.73.85.85,0,0,0-.43-.74l-6.93-4a1.48,1.48,0,0,1-.54-2h0a1.47,1.47,0,0,1,2-.53l6.78,3.9a4,4,0,0,1,2,3.18,3.79,3.79,0,0,1-1.87,3.46l-.49.28a29.51,29.51,0,0,1-29.86,0l-8.66-5.08a4.48,4.48,0,0,0-4.52,0Z"/><path class="cls-15" d="M76.11,158.06l3.64,6.38h0l21.33-12.65c.63-.43.9-1.46.48-2.94a5.5,5.5,0,0,0-1.37-2.37c-1.06-1.1-2.08-1.38-2.77-1.06h0L76.12,158.05Z"/><path class="cls-4" d="M101.41,149v0a5.5,5.5,0,0,0-1.37-2.37c-1.06-1.09-2.08-1.38-2.77-1.06L77,157.52l2.62,4.6h0L101,149.47A1.34,1.34,0,0,0,101.41,149Z"/><path class="cls-5" d="M79.83,164.83l-.3-.06-.1-.14-3.72-6.54.13-.3.09,0,21.31-12.63c.94-.43,2.13,0,3.23,1.12a6.08,6.08,0,0,1,1.46,2.53c.43,1.53.19,2.78-.63,3.34Zm-3.22-6.64,3.28,5.75,21-12.46c.53-.36.66-1.33.32-2.52a5.22,5.22,0,0,0-1.28-2.22c-.86-.88-1.76-1.26-2.36-1Z"/><path class="cls-4" d="M78,164.23a5.75,5.75,0,0,1-2.6-4.51c0-1.66,1.16-2.33,2.6-1.5a5.76,5.76,0,0,1,2.61,4.51C80.59,164.39,79.42,165.06,78,164.23Z"/><path class="cls-5" d="M79.15,165a2.76,2.76,0,0,1-1.35-.41h0A6.08,6.08,0,0,1,75,159.72a1.95,1.95,0,0,1,3.16-1.82A6.07,6.07,0,0,1,81,162.73a2.14,2.14,0,0,1-.94,2A1.7,1.7,0,0,1,79.15,165Zm-1-1a1.5,1.5,0,0,0,1.47.18,1.48,1.48,0,0,0,.58-1.37,5.37,5.37,0,0,0-2.42-4.19,1.23,1.23,0,0,0-2.06,1.18,5.37,5.37,0,0,0,2.43,4.2Z"/><rect class="cls-5" x="78.77" y="155.18" width="24.62" height="0.73" transform="translate(-66.37 67.8) rotate(-30.52)"/><path class="cls-4" d="M197.11,32H134.72V86h0c0,4.61,3.05,9.22,9.14,12.74,12.18,7,31.93,7,44.12,0,6.09-3.52,9.13-8.13,9.13-12.74h0Z"/><path class="cls-5" d="M165.92,104.34c-8.06,0-16.11-1.77-22.25-5.31s-9.32-8.11-9.32-13.06V31.62h63.13V86c0,5-3.31,9.59-9.32,13S174,104.34,165.92,104.34Zm-30.83-72V86c0,4.68,3.18,9.09,8.95,12.42,12.06,7,31.69,7,43.75,0,5.78-3.33,9-7.74,9-12.42V32.35Z"/><rect class="cls-5" x="138.35" y="40.83" width="0.73" height="53.93"/><rect class="cls-5" x="190.32" y="42.92" width="0.73" height="53.99"/><rect class="cls-5" x="187.23" y="44.92" width="0.73" height="53.99"/><rect class="cls-5" x="179.97" y="48.06" width="0.73" height="53.99"/><path class="cls-5" d="M150.46,82.36a20.42,20.42,0,0,1-11.1-3.31c-5.85-3.78-9.89-12.76-9.35-19.71a68.32,68.32,0,0,1,4.11-18.05.24.24,0,0,1,.3-.14h0a.88.88,0,0,1,.52,1.12A66,66,0,0,0,131.07,60a20,20,0,0,0,8.59,18,19.22,19.22,0,0,0,19.05,1.47C174.23,72.11,184.9,52,185,51.77l1,.51c-.11.2-11,20.67-26.81,28.12A20.55,20.55,0,0,1,150.46,82.36Z"/><ellipse class="cls-4" cx="185.5" cy="52.33" rx="2.29" ry="1.32" transform="translate(47.43 186.81) rotate(-60)"/><path class="cls-5" d="M184.78,54.79a1.16,1.16,0,0,1-.61-.16,1.5,1.5,0,0,1-.65-1.37,3.93,3.93,0,0,1,1.79-3.11,1.34,1.34,0,0,1,2.17,1.25,4,4,0,0,1-1.8,3.12A1.82,1.82,0,0,1,184.78,54.79Zm1.44-4.18a1.16,1.16,0,0,0-.54.17,3.25,3.25,0,0,0-1.43,2.48.63.63,0,0,0,1.06.62,3.21,3.21,0,0,0,1.44-2.48.82.82,0,0,0-.29-.73A.48.48,0,0,0,186.22,50.61Z"/><path class="cls-18" d="M146.37,46A5.51,5.51,0,0,0,150,50.85c3.59,1.39,2.72,14.9,1.88,17.59-.93,3-.37,5.28,1.71,5.28s2.26-2.87,1.26-5.3c-1.26-3.08-.25-14.86,1.35-16.37s5.3-.11,3.91,4.16-.3,5.33,1.15,5.33c2.11,0,2.2-3.09,1.07-5.61s2.77-5.58,5.34-2.31,3.71-2.45,8.22-4.56c2.76-1.3-23.69-6.14-23.69-6.14Z"/><path class="cls-17" d="M153.37,68.2c.84-2.69,1.7-16.2-1.88-17.58a5.5,5.5,0,0,1-3.62-4.83l5.06-2.7-.86-.16L146.25,46a5.51,5.51,0,0,0,3.62,4.83c3.59,1.39,2.72,14.9,1.88,17.59-.93,3-.37,5.28,1.71,5.28a1.72,1.72,0,0,0,1-.32C152.9,73,152.52,70.88,153.37,68.2Z"/><path class="cls-17" d="M161.6,56c1.27-3.95-1.78-5.44-3.51-4.46,1.47.28,2.82,1.84,1.89,4.7-1.38,4.28-.3,5.33,1.15,5.33a1.54,1.54,0,0,0,1-.33C161,60.92,160.42,59.62,161.6,56Z"/><path class="cls-17" d="M169.16,53.38a3,3,0,0,0-3.81-1.13,3.38,3.38,0,0,1,2.19,1.38c1,1.21,1.71,1.19,2.51.57A3.1,3.1,0,0,1,169.16,53.38Z"/><path class="cls-5" d="M153.58,74.08a2.26,2.26,0,0,1-1.91-.91c-.75-1-.8-2.77-.15-4.84.83-2.63,1.56-15.89-1.66-17.13A5.93,5.93,0,0,1,146,46V45.8l6.13-3.26.12,0c9,1.64,24,4.62,24.19,6.21a.61.61,0,0,1-.41.62A12.77,12.77,0,0,0,172,52.88c-1,1.17-1.81,2.09-2.79,2.09h0a2.4,2.4,0,0,1-1.75-1.12,2.67,2.67,0,0,0-3.64-.9,2.32,2.32,0,0,0-1.09,2.83c.75,1.66,1.12,3.92.27,5.23a1.87,1.87,0,0,1-1.67.89,2,2,0,0,1-1.7-.76c-.67-.91-.6-2.56.2-5,.58-1.77.27-3.24-.83-3.93a2.06,2.06,0,0,0-2.48.14c-1.38,1.3-2.55,12.81-1.26,16,.79,1.92.85,3.85.14,4.91a2,2,0,0,1-1.74.89Zm-6.82-27.84a5.08,5.08,0,0,0,3.37,4.27c4,1.53,2.87,15.57,2.09,18-.57,1.82-.56,3.38,0,4.19a1.53,1.53,0,0,0,1.32.61h0a1.27,1.27,0,0,0,1.13-.56c.56-.84.47-2.58-.21-4.23-1.32-3.23-.3-15.14,1.44-16.78a2.8,2.8,0,0,1,3.38-.23c1.39.88,1.81,2.67,1.13,4.78-.89,2.75-.66,3.9-.31,4.38a1.28,1.28,0,0,0,1.11.46,1.16,1.16,0,0,0,1.06-.56c.58-.9.45-2.81-.33-4.53a3.05,3.05,0,0,1,1.38-3.76A3.4,3.4,0,0,1,168,53.39c.45.57.84.84,1.2.85.67,0,1.39-.85,2.25-1.84a13.47,13.47,0,0,1,4.19-3.61c-1.56-1.07-12.91-3.57-23.34-5.48Z"/><ellipse class="cls-8" cx="165.92" cy="31.98" rx="31.2" ry="18.01"/><path class="cls-5" d="M165.92,50.53c-8.09,0-16.18-1.78-22.34-5.33S134.17,37,134.17,32s3.34-9.7,9.41-13.21c12.32-7.11,32.36-7.11,44.67,0,6.07,3.51,9.41,8.2,9.41,13.21s-3.34,9.71-9.41,13.22S174,50.53,165.92,50.53Zm0-36c-7.89,0-15.78,1.74-21.79,5.2-5.71,3.3-8.86,7.66-8.86,12.26s3.15,9,8.86,12.26c12,6.94,31.56,6.94,43.57,0,5.72-3.3,8.86-7.65,8.86-12.26s-3.14-9-8.86-12.26C181.7,16.26,173.81,14.52,165.92,14.52Z"/><ellipse class="cls-9" cx="165.35" cy="31.98" rx="26.86" ry="15.5"/><path class="cls-3" d="M152.1,27.18c-6.92,4-9.27,9.61-7.07,14.72.59.42,1.22.83,1.9,1.22,10.48,6.05,27.49,6.05,38,0,6.92-4,9.27-9.62,7.07-14.73-.59-.42-1.22-.82-1.9-1.21C179.59,21.12,162.58,21.12,152.1,27.18Z"/><path class="cls-5" d="M165.92,47.84c-6.95,0-13.89-1.52-19.18-4.57s-8-7-8-11.29,2.85-8.28,8-11.28c10.58-6.1,27.78-6.1,38.35,0h0c5.19,3,8,7,8,11.28s-2.86,8.29-8,11.29S172.86,47.84,165.92,47.84Zm0-31c-6.81,0-13.62,1.49-18.81,4.49-5,2.86-7.68,6.64-7.68,10.64s2.73,7.79,7.68,10.65c10.37,6,27.24,6,37.61,0,5-2.86,7.69-6.64,7.69-10.65s-2.73-7.78-7.69-10.64C179.54,18.34,172.73,16.85,165.92,16.85Z"/><path class="cls-22" d="M184.91,33c-10.49-6.06-27.49-6.06-38,0a18.32,18.32,0,0,0-5.79,5,18.34,18.34,0,0,0,5.79,5c10.49,6,27.49,6,38,0a18.3,18.3,0,0,0,5.78-5A18.28,18.28,0,0,0,184.91,33Z"/><path class="cls-23" d="M189.14,37c-10.49-6-27.49-6-38,0a18.28,18.28,0,0,0-5.78,5c.49.33,1,.65,1.54,1,10.49,6,27.49,6,38,0a18.34,18.34,0,0,0,5.77-5C190.19,37.65,189.68,37.33,189.14,37Z"/><path class="cls-5" d="M165.92,47.84c-6.95,0-13.89-1.52-19.18-4.57a18.87,18.87,0,0,1-5.89-5.08l-.16-.22.16-.21a18.62,18.62,0,0,1,5.89-5.08c10.58-6.11,27.78-6.11,38.35,0h0a18.66,18.66,0,0,1,5.9,5.08l.15.21-.15.22a18.79,18.79,0,0,1-5.9,5.08C179.8,46.32,172.86,47.84,165.92,47.84ZM141.6,38a18.15,18.15,0,0,0,5.51,4.66c10.37,6,27.24,6,37.61,0A18,18,0,0,0,190.23,38a18.17,18.17,0,0,0-5.51-4.66h0c-10.37-6-27.24-6-37.61,0A18.29,18.29,0,0,0,141.6,38Z"/><path class="cls-15" d="M146.93,24.32c10.49-6.06,27.49-6.06,38,0,4.45,2.57,7,5.81,7.68,9.16a0,0,0,0,0,0,0c.75-4.45-1.83-9-7.73-12.46-10.49-6-27.49-6-38,0-5.91,3.41-8.48,8-7.74,12.46a0,0,0,0,0,.06,0C139.92,30.13,142.48,26.89,146.93,24.32Z"/><path class="cls-5" d="M192.32,33.88l-.09-.33c-.69-3.39-3.28-6.47-7.51-8.91-10.37-6-27.24-6-37.61,0l-.18-.32.18.32c-4.22,2.44-6.82,5.52-7.5,8.91l-.06.3-.34,0h-.3l-.08-.32c-.8-4.79,2.09-9.47,7.91-12.84,10.58-6.1,27.78-6.1,38.35,0,5.83,3.37,8.71,8.05,7.91,12.84l-.05.3Zm-26.4-17c-6.81,0-13.62,1.49-18.81,4.49-4.78,2.76-7.49,6.41-7.67,10.23,1.17-2.87,3.66-5.46,7.3-7.57h0c10.58-6.1,27.78-6.1,38.35,0,3.65,2.11,6.14,4.7,7.3,7.57-.18-3.82-2.89-7.47-7.67-10.23C179.54,18.34,172.73,16.85,165.92,16.85Z"/><path class="cls-4" d="M220.46,87.56H173.77V128h0c0,3.45,2.28,6.9,6.84,9.53,9.11,5.26,23.9,5.26,33,0,4.56-2.63,6.84-6.08,6.84-9.53h0Z"/><path class="cls-5" d="M197.11,141.8c-6,0-12.09-1.33-16.69-4s-7-6.11-7-9.84V87.2h47.43V128c0,3.73-2.5,7.23-7,9.84S203.16,141.8,197.11,141.8Zm-23-53.87v40c0,3.46,2.37,6.73,6.66,9.21,9,5.2,23.65,5.2,32.65,0,4.29-2.48,6.65-5.75,6.65-9.21v-40Z"/><rect class="cls-5" x="176.39" y="94.18" width="0.73" height="40.36"/><rect class="cls-5" x="215.29" y="95.75" width="0.73" height="40.41"/><rect class="cls-5" x="212.97" y="97.24" width="0.73" height="40.41"/><rect class="cls-5" x="207.54" y="99.59" width="0.73" height="40.41"/><path class="cls-6" d="M181.78,96.45a11.8,11.8,0,0,0,3,4.45,18.77,18.77,0,0,0,3.05,2.3c1.42.86,2.82,2.18,2.25,3.9-1.07,3.21,3.11,3.56,2.32,0-.71-3.19.67-4.24,2.6-4.08s2.62,3.58,1.68,7.42-.13,5.65,1.85,5.58,2.24-3.76,1.36-6.15-.37-7.66,2.82-6.76c1.71.48,4.41,2.58,6.1-1.29a12,12,0,0,1,4-4.68l-31.29-1.49Z"/><path class="cls-24" d="M191.61,106.41c.58-1.72-.82-3-2.24-3.89a19.44,19.44,0,0,1-3.05-2.31,11.84,11.84,0,0,1-3-4.44v0l-1.86-.09.31.81a11.76,11.76,0,0,0,3,4.44,18.29,18.29,0,0,0,3.05,2.31c1.42.85,2.82,2.17,2.25,3.9-.85,2.52,1.56,3.26,2.24,1.74C191.65,108.6,191.16,107.77,191.61,106.41Z"/><path class="cls-24" d="M204.25,102.42a1.94,1.94,0,0,0-2.16.61,2.18,2.18,0,0,1,.6.09c1.39.39,3.45,1.86,5.08.29C206.52,103.49,205.23,102.69,204.25,102.42Z"/><path class="cls-24" d="M198.22,109.75c.94-3.84.24-7.27-1.68-7.42a2.56,2.56,0,0,0-2.21.7,3.53,3.53,0,0,1,.65,0c1.92.15,2.62,3.58,1.68,7.42s-.13,5.65,1.85,5.59a1.51,1.51,0,0,0,1.21-.71C198,115.17,197.33,113.35,198.22,109.75Z"/><path class="cls-5" d="M198.41,116.39a2.29,2.29,0,0,1-1.85-.81c-.78-1-.87-2.73-.26-5.23s.51-5.17-.34-6.34a1.36,1.36,0,0,0-1-.63A2.27,2.27,0,0,0,193,104c-.51.59-.61,1.65-.3,3.06.4,1.81-.39,2.53-.75,2.75a1.54,1.54,0,0,1-1.78-.1,2.32,2.32,0,0,1-.5-2.68c.41-1.23-.3-2.4-2.09-3.47a19.25,19.25,0,0,1-3.11-2.35,12.17,12.17,0,0,1-3.07-4.58l-.51-1.33,33,1.57-.94.62a11.61,11.61,0,0,0-3.83,4.52c-1.53,3.5-4,2.51-5.57,1.85-.35-.14-.68-.28-1-.36a1.61,1.61,0,0,0-1.76.44c-1.1,1.2-1.25,4.17-.63,5.84s.76,4.38-.17,5.76a1.88,1.88,0,0,1-1.52.89Zm-3.78-13.75H195a2.1,2.1,0,0,1,1.55.93c1,1.36,1.17,4.09.46,6.94s-.31,4.06.12,4.6a1.56,1.56,0,0,0,1.37.54,1.13,1.13,0,0,0,.93-.57c.7-1,.74-3.33.09-5.09s-.64-5.06.78-6.6a2.33,2.33,0,0,1,2.49-.64,9.7,9.7,0,0,1,1.05.38c1.66.68,3.37,1.38,4.62-1.47a12,12,0,0,1,3.27-4.21L182,96l.1.28a11.58,11.58,0,0,0,2.89,4.31,18.36,18.36,0,0,0,3,2.26c2.1,1.26,2.93,2.75,2.4,4.33a1.66,1.66,0,0,0,.26,1.87.8.8,0,0,0,.94.06c.47-.3.63-1,.42-2-.37-1.67-.21-2.92.46-3.7A2.72,2.72,0,0,1,194.63,102.64Z"/><path class="cls-25" d="M213.62,78c9.12,5.27,9.12,13.8,0,19.06s-23.9,5.27-33,0-9.12-13.79,0-19.06S204.51,72.77,213.62,78Z"/><path class="cls-5" d="M197.11,101.58c-6.07,0-12.15-1.34-16.78-4s-7.11-6.2-7.11-10,2.52-7.36,7.11-10c9.25-5.35,24.31-5.35,33.57,0h0c4.58,2.64,7.11,6.2,7.11,10s-2.53,7.36-7.11,10S203.19,101.58,197.11,101.58Zm0-26.95a33.16,33.16,0,0,0-16.23,3.88c-4.23,2.44-6.56,5.66-6.56,9s2.33,6.61,6.56,9.06c9,5.17,23.52,5.17,32.47,0,4.23-2.45,6.56-5.66,6.56-9.06s-2.33-6.61-6.56-9A33.17,33.17,0,0,0,197.11,74.63Z"/><path class="cls-15" d="M210.84,79.64c7.59,4.37,7.59,11.47,0,15.85s-19.87,4.38-27.45,0-7.59-11.48,0-15.85S203.26,75.26,210.84,79.64Z"/><path class="cls-4" d="M187.63,85.66c-4.37,2.53-6.22,6-5.54,9.26.4.28.82.55,1.27.81,7.58,4.38,19.88,4.38,27.46,0,4.38-2.53,6.22-6,5.54-9.26-.39-.28-.82-.55-1.27-.81C207.51,81.29,195.22,81.29,187.63,85.66Z"/><path class="cls-5" d="M197.11,99.13a28.5,28.5,0,0,1-13.91-3.32c-3.78-2.19-5.87-5.12-5.87-8.25s2.09-6.06,5.87-8.24c7.67-4.43,20.16-4.43,27.83,0,3.78,2.18,5.87,5.11,5.87,8.24s-2.09,6.06-5.87,8.25A28.54,28.54,0,0,1,197.11,99.13Zm0-22.41A27.75,27.75,0,0,0,183.57,80c-3.55,2-5.51,4.76-5.51,7.61s2,5.56,5.51,7.61c7.47,4.31,19.62,4.31,27.09,0,3.55-2,5.5-4.75,5.5-7.61S214.21,82,210.66,80A27.76,27.76,0,0,0,197.11,76.72Z"/><path class="cls-7" d="M210.84,88.29c-7.58-4.37-19.87-4.37-27.45,0a13.31,13.31,0,0,0-4.19,3.6,13.19,13.19,0,0,0,4.19,3.6c7.58,4.38,19.87,4.38,27.45,0a13,13,0,0,0,4.18-3.6A13.16,13.16,0,0,0,210.84,88.29Z"/><path class="cls-6" d="M185.47,90.93a13.51,13.51,0,0,0-4,3.36,16,16,0,0,0,1.89,1.27c7.58,4.38,19.88,4.38,27.46,0a13.53,13.53,0,0,0,4-3.37,15.51,15.51,0,0,0-1.89-1.26C205.35,86.55,193.06,86.55,185.47,90.93Z"/><path class="cls-5" d="M197.11,99.13a28.5,28.5,0,0,1-13.91-3.32,13.63,13.63,0,0,1-4.29-3.7l-.16-.22.16-.21A13.51,13.51,0,0,1,183.2,88c7.67-4.43,20.16-4.43,27.83,0a13.62,13.62,0,0,1,4.29,3.7l.16.21-.16.22a13.74,13.74,0,0,1-4.29,3.7A28.54,28.54,0,0,1,197.11,99.13Zm-17.45-7.24a13.05,13.05,0,0,0,3.91,3.28c7.47,4.31,19.62,4.31,27.09,0a13.05,13.05,0,0,0,3.91-3.28,13.2,13.2,0,0,0-3.91-3.28c-7.47-4.31-19.62-4.31-27.09,0A13.2,13.2,0,0,0,179.66,91.89Z"/><path class="cls-15" d="M183.39,82c7.58-4.38,19.87-4.38,27.45,0,3.22,1.86,5.07,4.2,5.56,6.62,0,0,0,0,0,0,.53-3.21-1.33-6.54-5.6-9-7.58-4.38-19.87-4.38-27.45,0-4.27,2.46-6.13,5.79-5.6,9,0,0,0,0,0,0C178.32,86.22,180.17,83.88,183.39,82Z"/><path class="cls-5" d="M216.11,89l-.08-.32c-.48-2.42-2.34-4.62-5.37-6.37C203.19,78,191,78,183.57,82.34c-3,1.75-4.89,4-5.38,6.38l-.06.3h-.63l-.07-.32c-.59-3.5,1.52-6.93,5.77-9.38,7.67-4.43,20.16-4.43,27.83,0,4.25,2.45,6.35,5.88,5.77,9.38l-.05.31Zm-19-12.31A27.75,27.75,0,0,0,183.57,80c-3.17,1.83-5.07,4.21-5.44,6.71a12.42,12.42,0,0,1,5.07-5h0c7.67-4.43,20.16-4.43,27.83,0a12.39,12.39,0,0,1,5.06,5c-.37-2.51-2.26-4.88-5.43-6.71A27.76,27.76,0,0,0,197.11,76.72Z"/><path class="cls-3" d="M97.06,134.51v-5.29a.08.08,0,0,0-.07-.07L87.2,129h0a22.29,22.29,0,0,0-9.33-.14h0l-4.95-.08H68.29a.08.08,0,0,0-.07.07v5.36c-.06.6.34,1.24,1.2,1.73L80,142.06a5.49,5.49,0,0,0,4.93.21l11.28-6.52A1.44,1.44,0,0,0,97.06,134.51Z"/><path class="cls-26" d="M83.91,136.91l-5.73-8.27-.33.06h0l-5-.08H68.28a.07.07,0,0,0-.07.07v5.36a1.93,1.93,0,0,0,1.2,1.73L80,141.89a5.84,5.84,0,0,0,4,.55,1,1,0,0,0,0-.17V137A.11.11,0,0,0,83.91,136.91Z"/><path class="cls-5" d="M82.78,143.13a6,6,0,0,1-3-.75l-10.57-6.11a2.26,2.26,0,0,1-1.38-2.09v-5.32a.43.43,0,0,1,.43-.43H72.9l4.95.07a22.74,22.74,0,0,1,9.42.15l9.73.14a.44.44,0,0,1,.43.44v5.28a1.84,1.84,0,0,1-1,1.56l-11.29,6.51A4.67,4.67,0,0,1,82.78,143.13Zm-14.19-14v5.06c0,.51.33,1,1,1.42l10.58,6.1a5.15,5.15,0,0,0,4.56.21L96,135.43a1.14,1.14,0,0,0,.67-.92v-5l-9.59-.16a21.86,21.86,0,0,0-9.17-.13h-.09l-5-.07Z"/><path class="cls-18" d="M96.21,130.33l-11.28,6.51a5.48,5.48,0,0,1-4.93-.2l-10.58-6.11c-1.46-.84-1.62-2.11-.35-2.84l4.83-2.79c4.83-2.79,13.26-2.44,18.83.78l3.13,1.8C97.32,128.33,97.48,129.6,96.21,130.33Z"/><path class="cls-5" d="M82.78,137.71a6.15,6.15,0,0,1-3-.75l-10.57-6.11a2.37,2.37,0,0,1-1.39-1.93,1.82,1.82,0,0,1,1-1.55l4.84-2.79c4.92-2.84,13.53-2.49,19.19.78L96,127.17a2.37,2.37,0,0,1,1.39,1.92,1.84,1.84,0,0,1-1,1.56l-11.29,6.51A4.67,4.67,0,0,1,82.78,137.71Zm-.7-14.33a16.29,16.29,0,0,0-8,1.83L69.25,128a1.15,1.15,0,0,0-.67.92c0,.45.37.92,1,1.3l10.58,6.1a5.18,5.18,0,0,0,4.56.21L96,130a1.15,1.15,0,0,0,.67-.92c0-.44-.37-.91-1-1.29L92.55,126A21.65,21.65,0,0,0,82.08,123.38Z"/><path class="cls-21" d="M87.84,126.32c2.88,1.66,2.88,4.35,0,6a11.48,11.48,0,0,1-10.4,0c-2.87-1.66-2.87-4.35,0-6A11.54,11.54,0,0,1,87.84,126.32Z"/><path class="cls-5" d="M82.64,133.93a11,11,0,0,1-5.39-1.28,3.53,3.53,0,0,1,0-6.64A11.91,11.91,0,0,1,88,126h0a3.53,3.53,0,0,1,0,6.64A11,11,0,0,1,82.64,133.93Zm0-8.49a10.24,10.24,0,0,0-5,1.2,2.81,2.81,0,0,0,0,5.37,11.1,11.1,0,0,0,10,0,2.81,2.81,0,0,0,0-5.37h0A10.24,10.24,0,0,0,82.64,125.44Z"/><path class="cls-20" d="M79.54,127.12a11.26,11.26,0,0,1,6.2,0c2.25.64,3.6,1.73,4.07,2.91a0,0,0,0,0,.09,0c.5-1.75-.89-3.64-4.18-4.58a11.31,11.31,0,0,0-6.16,0c-3.29.94-4.68,2.83-4.17,4.58a0,0,0,0,0,.08,0C75.94,128.85,77.29,127.76,79.54,127.12Z"/><path class="cls-5" d="M89.85,130.43a.4.4,0,0,1-.38-.26c-.46-1.15-1.85-2.13-3.83-2.7a10.92,10.92,0,0,0-6,0c-2,.57-3.37,1.55-3.83,2.7l-.09.24-.31,0a.42.42,0,0,1-.38-.3,2.92,2.92,0,0,1,.29-2.28,6.66,6.66,0,0,1,4.14-2.75,11.65,11.65,0,0,1,6.36,0A6.68,6.68,0,0,1,90,127.85a3,3,0,0,1,.28,2.28l-.07.25-.31.05Zm-7.21-4.11a11.56,11.56,0,0,1,3.2.45A7.24,7.24,0,0,1,89.6,129a2.37,2.37,0,0,0-.27-.77,6,6,0,0,0-3.71-2.39,10.78,10.78,0,0,0-6,0A6,6,0,0,0,76,128.2a2.56,2.56,0,0,0-.28.77,7.35,7.35,0,0,1,3.76-2.2h0A11.56,11.56,0,0,1,82.64,126.32Z"/><path class="cls-27" d="M81.52,137.61l-.37-.21a.59.59,0,0,0-.33,0l-2.5,0a.08.08,0,0,0-.08.11l2.24,5.84a.08.08,0,0,0,.12,0l1.22-.68a.54.54,0,0,0,.21-.45v-3.63A1.24,1.24,0,0,0,81.52,137.61Z"/><path class="cls-5" d="M80.64,143.75l-.23-.05a.44.44,0,0,1-.27-.26l-2.24-5.85a.48.48,0,0,1,0-.42.52.52,0,0,1,.38-.19l2.46,0a.86.86,0,0,1,.54.08l.37.22a1.56,1.56,0,0,1,.7,1.29v3.63a.93.93,0,0,1-.34.73h0c-.16.12-.49.3-1.18.68Zm-1.9-6,2,5.15.9-.5a.18.18,0,0,0,0-.15v-3.63a.86.86,0,0,0-.33-.66l-.37-.21h-.14Z"/><path class="cls-21" d="M80.05,143.47l-1.62-1a1.19,1.19,0,0,1-.51-1v-3.67c0-.38.22-.55.51-.39l1.62,1a1.23,1.23,0,0,1,.51,1v3.66C80.56,143.46,80.33,143.63,80.05,143.47Z"/><path class="cls-5" d="M80.25,143.9a.82.82,0,0,1-.39-.11h0l-1.62-1a1.57,1.57,0,0,1-.68-1.28v-3.67a.8.8,0,0,1,.36-.73.68.68,0,0,1,.7,0l1.64,1a1.59,1.59,0,0,1,.68,1.29v3.66a.8.8,0,0,1-.36.73A.62.62,0,0,1,80.25,143.9Zm-2-6.15v3.71a.9.9,0,0,0,.33.66l1.58,1v-3.7a.87.87,0,0,0-.33-.67Z"/><path class="cls-4" d="M96.09,133.65a1.72,1.72,0,0,1-.77,1.33c-.42.24-.76,0-.76-.44a1.69,1.69,0,0,1,.76-1.33C95.74,133,96.09,133.16,96.09,133.65Z"/><path class="cls-5" d="M95,135.45a.8.8,0,0,1-.38-.1.9.9,0,0,1-.41-.81,2.08,2.08,0,0,1,1-1.65.82.82,0,0,1,1.31.76,2.06,2.06,0,0,1-1,1.65A1,1,0,0,1,95,135.45Zm.68-2a.38.38,0,0,0-.16.06,1.33,1.33,0,0,0-.58,1,.29.29,0,0,0,0,.17s.07,0,.18-.05a1.33,1.33,0,0,0,.58-1,.28.28,0,0,0,0-.18Z"/><path class="cls-5" d="M101,139.74a7.08,7.08,0,0,1-3.34-.8,5.08,5.08,0,0,1-2.86-4.9l.81.05a4.21,4.21,0,0,0,2.4,4.21c2.14,1.16,4.89.68,5.67,0,.2-.17.66-.61.52-1.06-.08-.25-.56-1.08-3.5-1.31-1.77-.15-2.93-.56-3.6-1.38a2,2,0,0,1-.44-1.48l.61,0a1.35,1.35,0,0,0,.35.92c.38.45,1.22,1,3.13,1.17,3,.24,3.93,1.12,4.15,1.82a1.73,1.73,0,0,1-.76,1.84A5.24,5.24,0,0,1,101,139.74Z"/><rect class="cls-5" x="86.91" y="126.03" width="0.73" height="1.66"/><rect class="cls-5" x="76.06" y="127.05" width="0.73" height="1.66"/><path class="cls-21" d="M125.1,77.66V72.37a.23.23,0,0,0-.11-.17l-17.54-7.69h0l-3.38-2a3.06,3.06,0,0,0-1.72-.31h-.08L98,60.35H96.51a.18.18,0,0,0-.18.18v5.41l0,.08c0,.27.2.46.56.67l18.77,10.83a6.91,6.91,0,0,0,2.71.83l4.31.46c1.17.13,2.21-.35,2.37-1Z"/><path class="cls-5" d="M123.08,79.19l-.42,0-4.31-.47a7.33,7.33,0,0,1-2.86-.87L96.73,67a1.35,1.35,0,0,1-.75-1l0-.12V60.52a.55.55,0,0,1,.55-.55h1.4a.59.59,0,0,1,.23.05l4.22,1.85a3.38,3.38,0,0,1,1.88.36l3.38,2,17.51,7.69a.54.54,0,0,1,.33.5v5.32l0,.21A2.27,2.27,0,0,1,123.08,79.19ZM96.69,65.89v0c0,.14.06.26.39.45l18.77,10.83a6.42,6.42,0,0,0,2.57.78l4.31.47c1.08.12,1.88-.33,2-.71l0-.11V72.49l-17.42-7.64-3.43-2a2.63,2.63,0,0,0-1.51-.26.55.55,0,0,1-.26,0l-4.24-1.85H96.69Z"/><path class="cls-19" d="M125,72.12l-8.5-3.72v9.41a8.52,8.52,0,0,0,1.9.45l4.31.46c1.17.13,2.21-.35,2.37-1l0-.16V72.29A.2.2,0,0,0,125,72.12Z"/><path class="cls-5" d="M123.08,79.11l-.42,0-4.31-.47a7.81,7.81,0,0,1-2-.47l-.23-.09V67.83l9,4a.56.56,0,0,1,.33.51v5.28l0,.24A2.28,2.28,0,0,1,123.08,79.11Zm-6.22-1.56a7.44,7.44,0,0,0,1.57.34l4.31.47c1.08.12,1.88-.33,2-.71l0-.15V72.41L116.86,69Z"/><path class="cls-19" d="M98.18,60.45l-.2-.1H96.5a.18.18,0,0,0-.18.18v5.41l0,.08c0,.27.2.46.56.67l1.28.74Z"/><path class="cls-5" d="M98.55,68.05l-1.83-1a1.35,1.35,0,0,1-.75-1l0-.12V60.52A.55.55,0,0,1,96.5,60h1.4a.54.54,0,0,1,.22.05l.43.19Zm-1.87-2.16v0c0,.14.06.26.4.45l.73.42V60.71H96.68Z"/><path class="cls-20" d="M122.83,67.85,104.06,57a3.16,3.16,0,0,0-2.87,0l-4.28,2.47a.87.87,0,0,0,0,1.65L115.68,72a7.07,7.07,0,0,0,2.71.82l4.31.47c1.4.15,2.63-.56,2.36-1.37l-.8-2.48A3,3,0,0,0,122.83,67.85Z"/><path class="cls-21" d="M125.26,72.42l-.06-.19a3,3,0,0,0-1.43-1.56L105,59.83a3.14,3.14,0,0,0-2.86,0l-3.63,2.1L115.91,72a7.12,7.12,0,0,0,2.72.82l4.31.47A2.33,2.33,0,0,0,125.26,72.42Z"/><path class="cls-5" d="M123.08,73.66a3,3,0,0,1-.42,0l-4.31-.46a7.34,7.34,0,0,1-2.86-.88L96.73,61.46a1.23,1.23,0,0,1,0-2.29L101,56.7a3.48,3.48,0,0,1,3.23,0L123,67.53a3.41,3.41,0,0,1,1.6,1.77l.8,2.49a1.1,1.1,0,0,1-.22,1.06A2.77,2.77,0,0,1,123.08,73.66ZM102.63,57a2.62,2.62,0,0,0-1.25.29l-4.29,2.48c-.26.15-.41.33-.41.51s.15.35.41.51l18.77,10.83a6.75,6.75,0,0,0,2.57.78l4.31.46a2.26,2.26,0,0,0,1.89-.52.34.34,0,0,0,.08-.36l-.8-2.49a2.64,2.64,0,0,0-1.27-1.36L103.88,57.33A2.65,2.65,0,0,0,102.63,57Z"/><path class="cls-9" d="M109.68,71.89a3,3,0,0,0-1.24-2.38l-3.14-1.8a.79.79,0,0,0-.8-.07l-.2.11L60.35,93.09a.06.06,0,0,0,0,.09l4.86,5a.07.07,0,0,0,.06,0l43.29-24.95.67-.39A1.05,1.05,0,0,0,109.68,71.89Z"/><path class="cls-4" d="M107.08,72.38l.67-.39c.28-.16,1.56-.79,1.56-1.34s-1.41-1.13-1.86-1.64l-2.18-1.26a.81.81,0,0,0-.8-.06l-.2.11L60.32,93.14a.06.06,0,0,0,0,.09l3.78,3.93Z"/><path class="cls-5" d="M65.2,98.7l-.27-.22-5-5.17v-.22a.44.44,0,0,1,.2-.31l44.17-25.46a1.14,1.14,0,0,1,1.16.07l3.13,1.81a3.33,3.33,0,0,1,1.43,2.69,1.4,1.4,0,0,1-.65,1.33l-.67.39Zm-4.32-5.49,4.41,4.59L109,72.59c.08,0,.28-.16.28-.7a2.61,2.61,0,0,0-1.06-2.06L105.12,68a.46.46,0,0,0-.44-.06l-.21.11Z"/><path class="cls-4" d="M64.33,98.25l-3.14-1.81A3,3,0,0,1,60,94.07h0c0-.91.56-1.33,1.24-.94l3.14,1.81a3,3,0,0,1,1.24,2.37h0C65.57,98.23,65,98.65,64.33,98.25Z"/><path class="cls-5" d="M64.82,98.77a1.39,1.39,0,0,1-.68-.2L61,96.76a3.33,3.33,0,0,1-1.43-2.69,1.45,1.45,0,0,1,.62-1.32,1.15,1.15,0,0,1,1.18.06l3.13,1.81a3.34,3.34,0,0,1,1.43,2.69,1.47,1.47,0,0,1-.62,1.33A1,1,0,0,1,64.82,98.77Zm-.31-.83A.5.5,0,0,0,65,98a.81.81,0,0,0,.24-.69,2.59,2.59,0,0,0-1.06-2L61,93.45a.5.5,0,0,0-.45-.07.81.81,0,0,0-.24.69,2.61,2.61,0,0,0,1.06,2.06Z"/><rect class="cls-5" x="61.92" y="83.19" width="50.9" height="0.73" transform="translate(-30.13 55.13) rotate(-30.12)"/></g></g></svg>