<svg id="Livello_1" data-name="Livello 1" xmlns="http://www.w3.org/2000/svg" xmlns:xlink="http://www.w3.org/1999/xlink" viewBox="0 0 218.72 64"><defs><style>.cls-1{fill:url(#Безымянный_градиент_112);}.cls-2{fill:url(#Безымянный_градиент_77);}.cls-3{fill:url(#Безымянный_градиент_161);}.cls-4{fill:url(#Безымянный_градиент_162);}.cls-5{fill:url(#Безымянный_градиент_162-2);}.cls-6{fill:url(#Безымянный_градиент_143);}.cls-7{fill:#2e3e5c;}.cls-8{fill:#f7ce8f;}.cls-9{fill:url(#Безымянный_градиент_110);}.cls-10{fill:url(#Безымянный_градиент_104);}.cls-11{fill:#9d9d9c;}.cls-12,.cls-24{fill:#fff;}.cls-13{fill:#415680;}.cls-14{fill:url(#Новый_образец_градиента_1);}.cls-15{fill:url(#Безымянный_градиент_110-2);}.cls-16{fill:#36a9e1;}.cls-17{fill:url(#Безымянный_градиент_162-3);}.cls-18{fill:url(#Безымянный_градиент_143-2);}.cls-19{fill:url(#Безымянный_градиент_162-4);}.cls-20{fill:url(#Безымянный_градиент_143-3);}.cls-21{fill:#6ce3f0;}.cls-22{fill:#dadada;}.cls-23{fill:#d95e36;}.cls-24{font-size:8.7px;font-family:ChalkboardSE-Regular, Chalkboard SE;}.cls-25{letter-spacing:0em;}</style><linearGradient id="Безымянный_градиент_112" x1="-4.59" y1="47.89" x2="213.16" y2="27.41" gradientUnits="userSpaceOnUse"><stop offset="0" stop-color="#1c8eb8"/><stop offset="1" stop-color="#c5faff"/></linearGradient><linearGradient id="Безымянный_градиент_77" x1="24.75" y1="56.04" x2="88.47" y2="56.04" gradientUnits="userSpaceOnUse"><stop offset="0" stop-color="#c5faff"/><stop offset="1" stop-color="#2696bf"/></linearGradient><linearGradient id="Безымянный_градиент_161" x1="-4807.55" y1="48.57" x2="-4808.3" y2="30.59" gradientTransform="matrix(-1, 0, 0, 1, -4779.18, 0)" gradientUnits="userSpaceOnUse"><stop offset="0" stop-color="#0c5c7a"/><stop offset="1" stop-color="#3fc3d1"/></linearGradient><linearGradient id="Безымянный_градиент_162" x1="109.25" y1="36.16" x2="94.06" y2="2.43" gradientUnits="userSpaceOnUse"><stop offset="0" stop-color="#0b6473"/><stop offset="1" stop-color="#3fd1d1"/></linearGradient><linearGradient id="Безымянный_градиент_162-2" x1="31.77" y1="36.73" x2="17.81" y2="13.67" gradientTransform="matrix(1, 0, -0.01, 1, 5.53, 0)" xlink:href="#Безымянный_градиент_162"/><linearGradient id="Безымянный_градиент_143" x1="24.74" y1="27.68" x2="14.94" y2="14.25" gradientTransform="matrix(1, 0, -0.01, 1, 5.53, 0)" gradientUnits="userSpaceOnUse"><stop offset="0" stop-color="#3fc3d1"/><stop offset="0.4" stop-color="#42c5d3"/><stop offset="0.63" stop-color="#4acbd9"/><stop offset="0.83" stop-color="#58d5e2"/><stop offset="1" stop-color="#6ce3f0"/></linearGradient><linearGradient id="Безымянный_градиент_110" x1="68.9" y1="28.34" x2="93.39" y2="50.96" gradientUnits="userSpaceOnUse"><stop offset="0" stop-color="#ffe8b8"/><stop offset="0.04" stop-color="#ffeabd"/><stop offset="0.28" stop-color="#fff3da"/><stop offset="0.53" stop-color="#fffaee"/><stop offset="0.77" stop-color="#fffefb"/><stop offset="1" stop-color="#fff"/></linearGradient><linearGradient id="Безымянный_градиент_104" x1="98.22" y1="54.8" x2="107.13" y2="30.13" gradientTransform="translate(207.9 77.89) rotate(-180)" gradientUnits="userSpaceOnUse"><stop offset="0" stop-color="#d97e62"/><stop offset="0.09" stop-color="#de8c6a"/><stop offset="0.32" stop-color="#e9a97a"/><stop offset="0.55" stop-color="#f1bd86"/><stop offset="0.78" stop-color="#f5ca8d"/><stop offset="1" stop-color="#f7ce8f"/></linearGradient><linearGradient id="Новый_образец_градиента_1" x1="60.78" y1="27.44" x2="55.06" y2="9.17" gradientUnits="userSpaceOnUse"><stop offset="0" stop-color="#80331a"/><stop offset="0.14" stop-color="#973e21"/><stop offset="0.36" stop-color="#b44c2a"/><stop offset="0.58" stop-color="#c85631"/><stop offset="0.79" stop-color="#d55c35"/><stop offset="1" stop-color="#d95e36"/></linearGradient><linearGradient id="Безымянный_градиент_110-2" x1="38.17" y1="20.54" x2="53.72" y2="39.57" xlink:href="#Безымянный_градиент_110"/><linearGradient id="Безымянный_градиент_162-3" x1="-4153.26" y1="50.41" x2="-4185.87" y2="34.9" gradientTransform="matrix(-1, 0, 0, 1, -4033.71, 0)" xlink:href="#Безымянный_градиент_162"/><linearGradient id="Безымянный_градиент_143-2" x1="-4008.82" y1="50.35" x2="-4025.05" y2="42.81" gradientTransform="matrix(-1, 0, 0, 1, -3914.27, 0)" xlink:href="#Безымянный_градиент_143"/><linearGradient id="Безымянный_градиент_162-4" x1="117.4" y1="34.63" x2="106.83" y2="11.14" xlink:href="#Безымянный_градиент_162"/><linearGradient id="Безымянный_градиент_143-3" x1="111.54" y1="27.66" x2="103.93" y2="11.35" gradientTransform="matrix(1, 0, 0, 1, 0, 0)" xlink:href="#Безымянный_градиент_143"/></defs><title>valutazioni-b</title><g id="Utente_-_arancione-2" data-name="Utente - arancione"><path class="cls-1" d="M163.67,31.74c-7.29,1.74-13.56,1.38-22.09-4.17-25.15-16.35-43-14.13-66.39.63-5,3.15-13.26,9-26.57,4.66C26,25.4,8.51,32.92,0,48.07H218.72C214.6,42.05,195.18,24.22,163.67,31.74Z"/><path class="cls-2" d="M76.15,48.07C52.27,48.07,53.35,64,24.75,64H37.08c28.6,0,27.51-15.93,51.39-15.93Z"/><path class="cls-3" d="M7,48.07a8.6,8.6,0,0,1,9-4.29c5.05,1,6.16-1.22,8.25-2.15,3.81-1.71,5.69,2.53,8.07.35,3.33-3,6-3.35,8.17-.55,3.09,4,8.16-.43,9.3,6.64Z"/><path class="cls-4" d="M107.78,20.15c0,10.49-4.17,19.07-7.07,19.07S94,27.77,94,17.28,99.73-1.09,103.1.12C106.89,1.48,107.78,9.66,107.78,20.15Z"/><path class="cls-5" d="M42.53,23.49c-1.79-2.18-1.32-3.95-1.28-6.37.06-3.5-3.06-4.61-6.09-3.63l-.71.24-.13,0-.25.07a3.73,3.73,0,0,1-2.61-.23,18.27,18.27,0,0,1-2-.92l-.5-.26-.55-.3-.58-.32-.64-.36-.34-.19c-1.62-.93-4.63-1.21-6,.54a3.77,3.77,0,0,0-.54,1l-.06.18a5.33,5.33,0,0,0-.18,2.62c.21,1.19,1.1,2.92.12,4s-2.56.7-3.68,1.35A3.22,3.22,0,0,0,15.1,23a5.32,5.32,0,0,0-.16,1.18v.5c0,.08,0,.16,0,.24a12.27,12.27,0,0,0,3,7.57,12.52,12.52,0,0,0,1.05,1,17.07,17.07,0,0,0,10.11,3.88l.65,0h.68l.79,0a19.82,19.82,0,0,0,4.1-.61C49.53,33.14,44.19,25.51,42.53,23.49Z"/><path class="cls-6" d="M35.34,13.44l-.18.05-.71.24-.13,0-.25.07a3.73,3.73,0,0,1-2.61-.23,18.27,18.27,0,0,1-2-.92l-.5-.26-.55-.3-.58-.32-.64-.36-.34-.19c-1.62-.93-4.63-1.21-6,.54a3.77,3.77,0,0,0-.54,1l-.06.18a5.33,5.33,0,0,0-.18,2.62c.21,1.19,1.1,2.92.12,4s-2.56.7-3.68,1.35A3.22,3.22,0,0,0,15.1,23a5.32,5.32,0,0,0-.16,1.18v.5c0,.08,0,.16,0,.24a13.48,13.48,0,0,0,3,7.57c.25.3.5.58.77.85l.28.16c5.89,3.45-.45-4.7,4.72-8.09,2.59-1.71,7.61-3.5,5.42-6.22-1.59-2-2.8-2.76-2.31-3.85.27-.6,1-1.17,3.51-.72C33.71,15.19,36.17,14,35.34,13.44Z"/><polygon class="cls-7" points="31.47 25.23 31.36 30.69 31.35 31.42 31.23 37.36 31.16 40.64 31.27 48.07 29.87 48.07 29.93 41.47 29.11 37.34 28.36 33.55 28.3 33.21 27.84 30.92 28.2 30.55 29.76 37.37 30.32 39.81 30.44 37.38 30.91 28.39 30.93 27.97 31.1 24.75 31.47 25.23"/><polygon class="cls-7" points="33.58 27.38 31.15 31.02 31.14 31.74 33.84 27.59 33.58 27.38"/><polygon class="cls-7" points="29.96 26 31.02 28.16 31.02 28.63 29.79 26.06 29.96 26"/><polygon class="cls-7" points="26.71 31.79 28.5 33.4 28.65 33.81 26.55 31.9 26.71 31.79"/><polygon class="cls-8" points="64.55 48.07 88.47 48.07 88.47 25.72 76.51 8.33 64.55 25.72 64.55 48.07"/><rect class="cls-9" x="68.77" y="29.81" width="23.22" height="18.26"/><rect class="cls-10" x="91.99" y="29.81" width="23.92" height="18.26" transform="translate(207.9 77.89) rotate(180)"/><rect class="cls-11" x="72.28" y="33.93" width="16.19" height="14.15"/><rect class="cls-8" x="72.28" y="33.93" width="1.09" height="14.15" transform="translate(145.65 82) rotate(180)"/><rect class="cls-7" x="74.39" y="17.84" width="4.25" height="7.89"/><rect class="cls-12" x="77.53" y="17.84" width="1.1" height="7.89"/><rect class="cls-13" x="73.37" y="33.93" width="15.11" height="0.31"/><rect class="cls-13" x="73.37" y="35.08" width="15.11" height="0.31"/><rect class="cls-13" x="73.37" y="36.23" width="15.11" height="0.31"/><rect class="cls-13" x="73.37" y="37.39" width="15.11" height="0.31"/><rect class="cls-13" x="73.37" y="38.54" width="15.11" height="0.31"/><rect class="cls-13" x="73.37" y="39.69" width="15.11" height="0.31"/><rect class="cls-13" x="73.37" y="40.85" width="15.11" height="0.31"/><rect class="cls-13" x="73.37" y="42" width="15.11" height="0.31"/><rect class="cls-13" x="73.37" y="43.15" width="15.11" height="0.31"/><rect class="cls-13" x="73.37" y="44.3" width="15.11" height="0.31"/><rect class="cls-13" x="73.37" y="45.46" width="15.11" height="0.31"/><rect class="cls-13" x="73.37" y="46.61" width="15.11" height="0.31"/><rect class="cls-13" x="73.37" y="47.76" width="15.11" height="0.31"/><polygon class="cls-14" points="50.48 8.33 76.51 8.33 64.55 25.72 38.52 25.72 50.48 8.33"/><polygon class="cls-15" points="55.51 25.72 55.51 15.16 47.57 15.16 47.57 25.72 38.52 25.72 38.52 48.07 64.55 48.07 64.55 25.72 55.51 25.72"/><rect class="cls-7" x="49.19" y="18.11" width="4.7" height="7.62" transform="translate(103.08 43.83) rotate(180)"/><rect class="cls-8" x="49.19" y="18.11" width="1.1" height="7.62" transform="translate(99.48 43.83) rotate(180)"/><rect class="cls-7" x="45.09" y="29.81" width="4.7" height="14.15"/><rect class="cls-8" x="45.09" y="29.81" width="1.09" height="14.15" transform="translate(91.26 73.77) rotate(180)"/><rect class="cls-7" x="53.29" y="29.81" width="4.7" height="18.26" transform="translate(111.28 77.89) rotate(180)"/><rect class="cls-8" x="53.29" y="29.81" width="1.09" height="18.26" transform="translate(107.67 77.89) rotate(180)"/><polygon class="cls-8" points="55.51 15.16 62.78 15.16 55.51 25.72 55.51 15.16"/><rect class="cls-16" x="47.23" y="32.13" width="2.56" height="11.82"/><rect class="cls-16" x="55.43" y="32.13" width="2.56" height="15.94"/><rect class="cls-12" x="46.17" y="33.93" width="3.61" height="0.62"/><rect class="cls-12" x="54.38" y="33.93" width="3.61" height="0.62"/><rect class="cls-16" x="51.33" y="20.43" width="2.56" height="5.3"/><rect class="cls-16" x="75.43" y="20.16" width="2.11" height="5.57"/><path class="cls-17" d="M166.9,48.07c-1-1.76-7-5.52-14.58-4.29-6.91,1.12-8.45-1.22-11.31-2.15-5.23-1.71-9.27,3.92-11.08.35-2.3-4.56-4.86-6.46-16.28-2-2.72,1.07-3.77-1.4-5.31-2.46-3.62-2.46-11.8,4.23-11.8,10.53Z"/><polygon class="cls-12" points="137.03 48.07 136.57 48.07 136.57 43.03 137.31 43.03 137.03 48.07"/><polygon class="cls-12" points="139.84 48.07 139.4 48.07 138.6 43.03 139.34 43.03 139.84 48.07"/><polygon class="cls-12" points="139.85 38.72 139.46 38.72 138.6 43.03 139.34 43.03 139.85 38.72"/><rect class="cls-12" x="136.57" y="43.03" width="2.77" height="0.94"/><rect class="cls-12" x="137.98" y="43.03" width="2.03" height="0.94"/><polygon class="cls-12" points="125.06 48.07 124.59 48.07 124.59 43.03 125.33 43.03 125.06 48.07"/><polygon class="cls-12" points="127.87 48.07 127.43 48.07 126.63 43.03 127.37 43.03 127.87 48.07"/><polygon class="cls-12" points="127.88 38.72 127.49 38.72 126.63 43.03 127.37 43.03 127.88 38.72"/><rect class="cls-12" x="124.59" y="43.03" width="2.77" height="0.94"/><rect class="cls-12" x="123.57" y="43.03" width="14.41" height="0.94"/><polygon class="cls-12" points="126.06 39.65 140.47 39.65 140.64 38.72 126.23 38.72 126.06 39.65"/><polygon class="cls-12" points="125.8 41.09 140.21 41.09 140.38 40.15 125.97 40.15 125.8 41.09"/><path class="cls-18" d="M117.81,48.07H94.58C91.12,43.31,97,46,97,46s-2.65-5.3-.72-4.75S99.56,45,99.56,45s1.12-5.29,2.85-5.76c1.41-.38.89,5.47.89,5.47a3.71,3.71,0,0,1,2.3-1.38c1,0,.53,1.94.53,1.94s2.12-4.35,3.23-4.3c1.39.07-.1,4.64-.1,4.64s2.73-2.86,3.81-2.89c1.92-.05-.29,4.48-.29,4.48a7.92,7.92,0,0,1,4-1.47C118.47,45.57,118.65,46.89,117.81,48.07Z"/><path class="cls-19" d="M124.86,17.38a4.66,4.66,0,0,0-3.24-2c-2.48-.36-1.63-3.11-3.79-3.84s-2.47,1.07-8.29-2.23c-1.62-.93-4.64-1.21-6,.54a4.89,4.89,0,0,0-.75,3.76c.22,1.19,1.12,2.92.15,4s-2.55.7-3.68,1.35a3.68,3.68,0,0,0-1.6,3.24,13.33,13.33,0,0,0,3.08,8.31c3.87,4.66,10.86,5.77,16.37,3.76a13,13,0,0,0,7.3-6.71C125.84,24.53,126.71,20.36,124.86,17.38Z"/><path class="cls-20" d="M116.22,11.29c-1.23.06-2.51.33-6.68-2-1.62-.92-4.64-1.21-6,.54a4.89,4.89,0,0,0-.75,3.76c.22,1.19,1.12,2.92.15,4s-2.55.7-3.68,1.35a3.68,3.68,0,0,0-1.6,3.24,13.33,13.33,0,0,0,3.08,8.31c.18.22.36.42.55.62,7,3.81,1.93-7.8,4.27-9.91,1.48-1.33,4.37.56,5.68-.38a1.47,1.47,0,0,0,.1-2.1c-1.58-2.17-4.11-4.48-2.86-5.79.67-.7,2-.32,4.51-.31C115.91,12.59,117.4,11.84,116.22,11.29Z"/><polygon class="cls-7" points="113.09 48.07 111.65 48.07 111.59 38.64 110.07 25.09 110.45 24.61 112.45 37.81 113.91 28.38 114.26 28.75 112.82 39.47 113.09 48.07"/><polygon class="cls-7" points="116.82 27.61 113.47 32.54 113.47 32.13 116.63 27.41 116.82 27.61"/><polygon class="cls-7" points="110.99 31.45 108.14 27.59 108.29 27.41 111.05 30.97 110.99 31.45"/><polygon class="cls-7" points="111.69 23.23 110.85 27.87 110.66 27.41 111.5 23.17 111.69 23.23"/><path class="cls-21" d="M118.65,48.07a5.46,5.46,0,0,1,2.3-.91c.68-.06.77.44.28.91Z"/><polygon class="cls-22" points="181 62.67 175.14 63.14 174.66 63.61 179.15 63.61 176.55 64 177.66 64 180.26 63.61 197.47 63.61 194.87 64 195.99 64 198.59 63.61 203.07 63.61 209.4 62.67 181 62.67"/><polygon class="cls-23" points="172.07 58.43 200.47 58.43 200.47 44.84 172.07 44.84 169.38 51.63 172.07 58.43"/><rect class="cls-13" x="176.55" y="58.43" width="1.12" height="5.57" transform="translate(354.21 122.43) rotate(180)"/><rect class="cls-13" x="194.87" y="58.43" width="1.12" height="5.57" transform="translate(390.86 122.43) rotate(180)"/><text class="cls-24" transform="translate(175.35 55.15)"><tspan class="cls-25">C</tspan><tspan x="5.12" y="0">ASA</tspan></text></g></svg>